<?xml version="1.0" encoding="UTF-8" standalone="no"?>
<svg xmlns:xlink="http://www.w3.org/1999/xlink" height="41.55px" width="140.45px" xmlns="http://www.w3.org/2000/svg">
  <g transform="matrix(1.0, 0.0, 0.0, 1.0, -0.8, -0.95)">
    <use height="41.55" transform="matrix(1.0, 0.0, 0.0, 1.0, 0.8, 0.95)" width="140.45" xlink:href="#shape0"/>
    <use height="41.1" transform="matrix(0.4701, 0.0, 0.0, 0.4701, 9.9226, 9.9656)" width="208.55" xlink:href="#text0"/>
  </g>
  <defs>
    <g id="shape0" transform="matrix(1.0, 0.0, 0.0, 1.0, -0.8, -0.95)">
      <path d="M141.25 26.8 L127.7 26.8 127.7 31.85 122.2 31.85 122.2 42.5 7.55 42.5 7.55 35.75 3.15 35.75 3.15 6.65 7.55 6.65 7.55 3.75 141.25 3.75 141.25 26.8 M135.3 37.55 L127.75 37.55 127.75 31.15 135.3 31.15 135.3 37.55" fill="#137614" fill-rule="evenodd" stroke="none"/>
      <path d="M133.85 35.4 L126.35 35.4 126.35 29.0 133.85 29.0 133.85 35.4" fill="url(#gradient0)" fill-rule="evenodd" stroke="none"/>
      <path d="M113.7 0.95 L139.8 0.95 139.8 24.7 126.25 24.7 126.25 29.65 120.75 29.65 120.75 40.3 113.7 40.3 113.7 0.95" fill="url(#gradient1)" fill-rule="evenodd" stroke="none"/>
      <path d="M113.7 0.95 L113.7 40.3 79.35 40.3 79.35 0.95 113.7 0.95" fill="url(#gradient2)" fill-rule="evenodd" stroke="none"/>
      <path d="M79.35 40.3 L5.2 40.3 5.2 33.55 0.8 33.55 0.8 4.5 5.2 4.5 5.2 0.95 79.35 0.95 79.35 40.3" fill="url(#gradient3)" fill-rule="evenodd" stroke="none"/>
      <path d="M36.3 28.15 Q36.8 27.85 36.75 26.95 36.75 26.2 36.15 26.0 L34.55 25.8 33.3 26.0 Q32.8 26.3 32.8 27.1 32.8 27.75 33.1 28.05 L33.85 28.4 34.55 28.45 36.3 28.15 M22.95 13.3 Q24.3 13.45 25.2 14.05 26.1 14.6 26.55 15.8 26.95 16.95 27.0 18.9 L27.0 19.6 22.15 19.6 22.15 18.9 21.7 17.75 Q21.35 17.4 20.7 17.3 L19.3 17.2 17.35 17.55 Q16.7 17.85 16.55 18.55 L16.35 20.55 16.35 23.3 Q16.35 24.6 16.5 25.45 16.65 26.25 17.3 26.6 17.9 26.95 19.3 26.95 L20.9 26.85 Q21.55 26.7 21.9 26.25 L22.2 24.75 22.2 24.2 27.05 24.2 27.05 24.75 26.95 26.6 26.55 28.3 25.4 29.75 23.7 30.65 21.8 31.0 19.8 31.05 16.5 30.9 Q15.0 30.75 13.9 30.1 12.75 29.5 12.15 28.1 11.55 26.75 11.55 24.35 L11.55 19.8 Q11.55 17.65 12.1 16.3 12.65 14.95 13.75 14.3 14.8 13.6 16.35 13.35 L19.8 13.15 22.95 13.3 M43.5 13.25 L47.55 13.25 47.55 30.9 43.5 30.9 43.5 13.25 M40.5 20.65 L40.8 23.2 40.8 30.9 36.75 30.9 36.9 29.05 36.75 29.05 Q36.6 29.9 36.05 30.35 L34.7 30.9 33.25 31.05 30.8 30.75 Q29.8 30.45 29.3 29.6 28.75 28.75 28.75 27.2 28.75 25.75 29.25 24.9 29.8 24.05 30.75 23.7 L33.25 23.35 34.5 23.4 35.8 23.75 Q36.35 24.05 36.6 24.75 L36.75 24.75 36.75 22.75 36.7 21.8 36.2 21.1 34.95 20.9 Q34.2 20.85 33.75 21.15 33.3 21.4 33.3 22.25 L29.25 22.25 Q29.25 20.8 29.75 20.0 30.2 19.25 31.0 18.9 L32.85 18.5 34.95 18.45 37.6 18.55 Q38.7 18.75 39.45 19.2 40.15 19.7 40.5 20.65 M61.05 20.6 Q61.5 21.55 61.5 23.2 L57.45 23.2 57.4 22.4 57.15 21.9 56.55 21.6 55.55 21.5 54.4 21.75 Q54.0 21.95 53.85 22.65 L53.65 24.75 Q53.65 26.15 53.8 26.85 53.95 27.55 54.35 27.75 L55.55 27.95 56.85 27.75 Q57.25 27.6 57.35 27.15 L57.45 25.95 61.5 25.95 61.2 28.7 Q60.85 29.7 60.15 30.2 59.45 30.75 58.3 30.9 L55.55 31.05 Q53.15 31.05 51.9 30.5 50.6 29.9 50.1 28.55 49.6 27.15 49.65 24.75 49.6 23.2 49.85 22.0 50.05 20.8 50.7 20.0 51.3 19.25 52.5 18.85 L55.55 18.45 57.95 18.55 Q59.05 18.7 59.85 19.15 60.65 19.65 61.05 20.6 M71.0 18.55 L75.05 18.55 75.05 30.9 71.1 30.9 71.25 28.5 71.1 28.5 Q70.65 29.95 69.65 30.5 L67.4 31.05 65.2 30.65 Q64.25 30.25 63.75 29.4 63.2 28.5 63.2 27.0 L63.2 18.55 67.25 18.55 67.25 25.9 67.3 26.95 Q67.4 27.4 67.75 27.65 L68.75 27.95 69.8 27.75 70.65 27.15 Q71.0 26.75 71.0 26.15 L71.0 18.55 M81.9 13.25 L81.9 30.9 77.85 30.9 77.85 13.25 81.9 13.25 M92.2 26.95 Q92.2 26.2 91.6 26.0 L90.0 25.8 88.75 26.0 Q88.25 26.3 88.25 27.1 88.25 27.75 88.55 28.05 L89.3 28.4 90.0 28.45 91.75 28.15 Q92.25 27.85 92.2 26.95 M88.3 18.5 L90.4 18.45 93.05 18.55 94.9 19.2 Q95.6 19.7 95.95 20.65 L96.25 23.2 96.25 30.9 92.2 30.9 92.35 29.05 92.2 29.05 Q92.05 29.9 91.5 30.35 L90.15 30.9 88.7 31.05 86.25 30.75 Q85.25 30.45 84.75 29.6 84.2 28.75 84.2 27.2 84.2 25.75 84.7 24.9 85.25 24.05 86.2 23.7 L88.7 23.35 89.95 23.4 Q90.65 23.45 91.25 23.75 91.8 24.05 92.05 24.75 L92.2 24.75 92.2 22.75 92.15 21.8 91.65 21.1 90.4 20.9 Q89.65 20.85 89.2 21.15 88.75 21.4 88.75 22.25 L84.7 22.25 Q84.7 20.8 85.2 20.0 85.65 19.25 86.45 18.9 L88.3 18.5 M105.0 18.55 L106.0 18.45 Q107.4 18.45 108.05 19.1 108.7 19.75 108.9 20.8 L109.05 23.0 109.05 23.95 105.4 23.95 105.4 23.35 105.4 22.5 105.15 21.8 104.35 21.5 Q103.45 21.55 103.15 22.15 102.85 22.7 102.85 23.5 L102.85 30.9 98.8 30.9 98.8 18.55 102.75 18.55 102.75 20.4 102.9 20.4 Q103.1 19.85 103.45 19.45 L104.1 18.85 105.0 18.55" fill="#000000" fill-opacity="0.29803923" fill-rule="evenodd" stroke="none"/>
      <path d="M32.75 23.3 L31.5 23.5 Q31.0 23.8 31.0 24.6 31.0 25.25 31.3 25.55 L32.05 25.9 32.75 25.95 34.5 25.65 Q35.0 25.35 34.95 24.45 34.95 23.7 34.35 23.5 L32.75 23.3 M27.95 17.5 Q28.4 16.75 29.2 16.4 30.0 16.05 31.05 16.0 L33.15 15.95 35.8 16.05 37.65 16.7 Q38.35 17.2 38.7 18.15 L39.0 20.7 39.0 28.4 34.95 28.4 35.1 26.55 34.95 26.55 Q34.8 27.4 34.25 27.85 L32.9 28.4 31.45 28.55 29.0 28.25 Q28.0 27.95 27.5 27.1 26.95 26.25 26.95 24.7 26.95 23.25 27.45 22.4 28.0 21.55 28.95 21.2 L31.45 20.85 32.7 20.9 Q33.4 20.95 34.0 21.25 34.55 21.55 34.8 22.25 L34.95 22.25 34.95 20.25 34.9 19.3 34.4 18.6 33.15 18.4 Q32.4 18.35 31.95 18.65 31.5 18.9 31.5 19.75 L27.45 19.75 Q27.45 18.3 27.95 17.5 M21.15 10.8 Q22.5 10.95 23.4 11.55 24.3 12.1 24.75 13.3 25.15 14.45 25.2 16.4 L25.2 17.1 20.35 17.1 20.35 16.4 19.9 15.25 Q19.55 14.9 18.9 14.8 L17.5 14.7 15.8 14.95 15.55 15.05 Q14.9 15.35 14.75 16.05 L14.55 18.05 14.55 20.8 Q14.55 22.1 14.7 22.95 14.85 23.75 15.5 24.1 L15.8 24.25 17.5 24.45 19.1 24.35 Q19.75 24.2 20.1 23.75 L20.4 22.25 20.4 21.7 25.25 21.7 25.25 22.25 25.15 24.1 24.75 25.8 23.6 27.25 21.9 28.15 20.0 28.5 18.0 28.55 15.8 28.5 14.7 28.4 Q13.2 28.25 12.1 27.6 10.95 27.0 10.35 25.6 9.75 24.25 9.75 21.85 L9.75 17.3 Q9.75 15.15 10.3 13.8 10.85 12.45 11.95 11.8 13.0 11.1 14.55 10.85 L15.8 10.7 18.0 10.65 21.15 10.8 M47.85 22.25 Q47.8 20.7 48.05 19.5 48.25 18.3 48.9 17.5 49.5 16.75 50.7 16.35 L53.75 15.95 56.15 16.05 58.05 16.65 Q58.85 17.15 59.25 18.1 59.7 19.05 59.7 20.7 L55.65 20.7 55.6 19.9 55.35 19.4 54.75 19.1 53.75 19.0 Q53.0 19.0 52.6 19.25 52.2 19.45 52.05 20.15 L51.85 22.25 Q51.85 23.65 52.0 24.35 52.15 25.05 52.55 25.25 L53.75 25.45 55.05 25.25 55.55 24.65 55.65 23.45 59.7 23.45 59.4 26.2 Q59.05 27.2 58.35 27.7 57.65 28.25 56.5 28.4 L53.75 28.55 Q51.35 28.55 50.1 28.0 48.8 27.4 48.3 26.05 47.8 24.65 47.85 22.25 M41.7 10.75 L45.75 10.75 45.75 28.4 41.7 28.4 41.7 10.75 M76.05 10.75 L80.1 10.75 80.1 28.4 76.05 28.4 76.05 10.75 M61.4 16.05 L65.45 16.05 65.45 23.4 65.5 24.45 Q65.6 24.9 65.95 25.15 L66.95 25.45 68.0 25.25 68.85 24.65 Q69.2 24.25 69.2 23.65 L69.2 16.05 73.25 16.05 73.25 28.4 69.3 28.4 69.45 26.0 69.3 26.0 Q68.85 27.45 67.85 28.0 66.9 28.55 65.6 28.55 L63.4 28.15 Q62.45 27.75 61.95 26.9 61.4 26.0 61.4 24.5 L61.4 16.05 M88.2 23.3 L86.95 23.5 Q86.45 23.8 86.45 24.6 86.45 25.25 86.75 25.55 L87.5 25.9 88.2 25.95 89.95 25.65 Q90.45 25.35 90.4 24.45 90.4 23.7 89.8 23.5 L88.2 23.3 M86.5 16.0 L88.6 15.95 91.25 16.05 Q92.35 16.25 93.1 16.7 93.8 17.2 94.15 18.15 L94.45 20.7 94.45 28.4 90.4 28.4 90.55 26.55 90.4 26.55 Q90.25 27.4 89.7 27.85 L88.35 28.4 86.9 28.55 84.45 28.25 Q83.45 27.95 82.95 27.1 82.4 26.25 82.4 24.7 82.4 23.25 82.9 22.4 83.45 21.55 84.4 21.2 L86.9 20.85 88.15 20.9 89.45 21.25 Q90.0 21.55 90.25 22.25 L90.4 22.25 90.4 20.25 90.35 19.3 89.85 18.6 88.6 18.4 87.4 18.65 Q86.95 18.9 86.95 19.75 L82.9 19.75 Q82.9 18.3 83.4 17.5 83.85 16.75 84.65 16.4 85.45 16.05 86.5 16.0 M101.65 16.95 L102.3 16.35 103.2 16.05 104.2 15.95 Q105.6 15.95 106.25 16.6 106.9 17.25 107.1 18.3 L107.25 20.5 107.25 21.45 103.6 21.45 103.6 20.85 103.6 20.0 103.35 19.3 Q103.1 19.05 102.55 19.0 101.65 19.05 101.35 19.65 101.05 20.2 101.05 21.0 L101.05 28.4 97.0 28.4 97.0 16.05 100.95 16.05 100.95 17.9 101.1 17.9 Q101.3 17.35 101.65 16.95" fill="#0066cc" fill-rule="evenodd" stroke="none"/>
      <path d="M101.65 16.95 Q101.3 17.35 101.1 17.9 L100.95 17.9 100.95 16.05 97.0 16.05 97.0 28.4 101.05 28.4 101.05 21.0 Q101.05 20.2 101.35 19.65 101.65 19.05 102.55 19.0 103.1 19.05 103.35 19.3 L103.6 20.0 103.6 20.85 103.6 21.45 107.25 21.45 107.25 20.5 107.1 18.3 Q106.9 17.25 106.25 16.6 105.6 15.95 104.2 15.95 L103.2 16.05 102.3 16.35 101.65 16.95 M86.5 16.0 Q85.45 16.05 84.65 16.4 83.85 16.75 83.4 17.5 82.9 18.3 82.9 19.75 L86.95 19.75 Q86.95 18.9 87.4 18.65 L88.6 18.4 89.85 18.6 90.35 19.3 90.4 20.25 90.4 22.25 90.25 22.25 Q90.0 21.55 89.45 21.25 L88.15 20.9 86.9 20.85 84.4 21.2 Q83.45 21.55 82.9 22.4 82.4 23.25 82.4 24.7 82.4 26.25 82.95 27.1 83.45 27.95 84.45 28.25 L86.9 28.55 88.35 28.4 89.7 27.85 Q90.25 27.4 90.4 26.55 L90.55 26.55 90.4 28.4 94.45 28.4 94.45 20.7 94.15 18.15 Q93.8 17.2 93.1 16.7 92.35 16.25 91.25 16.05 L88.6 15.95 86.5 16.0 M88.2 23.3 L89.8 23.5 Q90.4 23.7 90.4 24.45 90.45 25.35 89.95 25.65 L88.2 25.95 87.5 25.9 86.75 25.55 Q86.45 25.25 86.45 24.6 86.45 23.8 86.95 23.5 L88.2 23.3 M61.4 16.05 L61.4 24.5 Q61.4 26.0 61.95 26.9 62.45 27.75 63.4 28.15 L65.6 28.55 Q66.9 28.55 67.85 28.0 68.85 27.45 69.3 26.0 L69.45 26.0 69.3 28.4 73.25 28.4 73.25 16.05 69.2 16.05 69.2 23.65 Q69.2 24.25 68.85 24.65 L68.0 25.25 66.95 25.45 65.95 25.15 Q65.6 24.9 65.5 24.45 L65.45 23.4 65.45 16.05 61.4 16.05 M76.05 10.75 L76.05 28.4 80.1 28.4 80.1 10.75 76.05 10.75 M41.7 10.75 L41.7 28.4 45.75 28.4 45.75 10.75 41.7 10.75 M47.85 22.25 Q47.8 24.65 48.3 26.05 48.8 27.4 50.1 28.0 51.35 28.55 53.75 28.55 L56.5 28.4 Q57.65 28.25 58.35 27.7 59.05 27.2 59.4 26.2 L59.7 23.45 55.65 23.45 55.55 24.65 55.05 25.25 53.75 25.45 52.55 25.25 Q52.15 25.05 52.0 24.35 51.85 23.65 51.85 22.25 L52.05 20.15 Q52.2 19.45 52.6 19.25 53.0 19.0 53.75 19.0 L54.75 19.1 55.35 19.4 55.6 19.9 55.65 20.7 59.7 20.7 Q59.7 19.05 59.25 18.1 58.85 17.15 58.05 16.65 L56.15 16.05 53.75 15.95 50.7 16.35 Q49.5 16.75 48.9 17.5 48.25 18.3 48.05 19.5 47.8 20.7 47.85 22.25 M21.15 10.8 L18.0 10.65 15.8 10.7 14.55 10.85 Q13.0 11.1 11.95 11.8 10.85 12.45 10.3 13.8 9.75 15.15 9.75 17.3 L9.75 21.85 Q9.75 24.25 10.35 25.6 10.95 27.0 12.1 27.6 13.2 28.25 14.7 28.4 L15.8 28.5 18.0 28.55 20.0 28.5 21.9 28.15 23.6 27.25 24.75 25.8 25.15 24.1 25.25 22.25 25.25 21.7 20.4 21.7 20.4 22.25 20.1 23.75 Q19.75 24.2 19.1 24.35 L17.5 24.45 15.8 24.25 15.5 24.1 Q14.85 23.75 14.7 22.95 14.55 22.1 14.55 20.8 L14.55 18.05 14.75 16.05 Q14.9 15.35 15.55 15.05 L15.8 14.95 17.5 14.7 18.9 14.8 Q19.55 14.9 19.9 15.25 L20.35 16.4 20.35 17.1 25.2 17.1 25.2 16.4 Q25.15 14.45 24.75 13.3 24.3 12.1 23.4 11.55 22.5 10.95 21.15 10.8 M27.95 17.5 Q27.45 18.3 27.45 19.75 L31.5 19.75 Q31.5 18.9 31.95 18.65 32.4 18.35 33.15 18.4 L34.4 18.6 34.9 19.3 34.95 20.25 34.95 22.25 34.8 22.25 Q34.55 21.55 34.0 21.25 33.4 20.95 32.7 20.9 L31.45 20.85 28.95 21.2 Q28.0 21.55 27.45 22.4 26.95 23.25 26.95 24.7 26.95 26.25 27.5 27.1 28.0 27.95 29.0 28.25 L31.45 28.55 32.9 28.4 34.25 27.85 Q34.8 27.4 34.95 26.55 L35.1 26.55 34.95 28.4 39.0 28.4 39.0 20.7 38.7 18.15 Q38.35 17.2 37.65 16.7 L35.8 16.05 33.15 15.95 31.05 16.0 Q30.0 16.05 29.2 16.4 28.4 16.75 27.95 17.5 M32.75 23.3 L34.35 23.5 Q34.95 23.7 34.95 24.45 35.0 25.35 34.5 25.65 L32.75 25.95 32.05 25.9 31.3 25.55 Q31.0 25.25 31.0 24.6 31.0 23.8 31.5 23.5 L32.75 23.3" fill="none" stroke="#0066cc" stroke-linecap="round" stroke-linejoin="round" stroke-width="3.0"/>
    </g>
    <linearGradient gradientTransform="matrix(0.0046, 0.0, 0.0, 0.0039, 130.1, 32.2)" gradientUnits="userSpaceOnUse" id="gradient0" spreadMethod="pad" x1="-819.2" x2="819.2">
      <stop offset="0.0" stop-color="#00a13a"/>
      <stop offset="1.0" stop-color="#0a720c"/>
      <stop offset="1.0" stop-color="#067fc4"/>
      <stop offset="1.0" stop-color="#067fc4"/>
    </linearGradient>
    <linearGradient gradientTransform="matrix(0.0, -0.0174, 0.0285, 0.0, 78.7, 12.65)" gradientUnits="userSpaceOnUse" id="gradient1" spreadMethod="pad" x1="-819.2" x2="819.2">
      <stop offset="0.0" stop-color="#00a13a"/>
      <stop offset="1.0" stop-color="#0a720c"/>
      <stop offset="1.0" stop-color="#067fc4"/>
      <stop offset="1.0" stop-color="#067fc4"/>
    </linearGradient>
    <linearGradient gradientTransform="matrix(0.0, -0.0174, 0.1211, 0.0, 3.05, 12.65)" gradientUnits="userSpaceOnUse" id="gradient2" spreadMethod="pad" x1="-819.2" x2="819.2">
      <stop offset="0.0" stop-color="#00a13a"/>
      <stop offset="1.0" stop-color="#0a720c"/>
      <stop offset="1.0" stop-color="#067fc4"/>
      <stop offset="1.0" stop-color="#067fc4"/>
    </linearGradient>
    <linearGradient gradientTransform="matrix(0.0, -0.0174, 0.0285, 0.0, 61.45, 12.65)" gradientUnits="userSpaceOnUse" id="gradient3" spreadMethod="pad" x1="-819.2" x2="819.2">
      <stop offset="0.0" stop-color="#00a13a"/>
      <stop offset="1.0" stop-color="#0a720c"/>
      <stop offset="1.0" stop-color="#067fc4"/>
      <stop offset="1.0" stop-color="#067fc4"/>
    </linearGradient>
    <g id="text0" transform="matrix(1.0, 0.0, 0.0, 1.0, -1.75, -9.5)">
      <g transform="matrix(1.0, 0.0, 0.0, 1.0, 0.0, 0.0)">
        <use fill="#ffffff" height="41.1" transform="matrix(0.0488, 0.0, 0.0, 0.0488, 0.0, 49.0)" width="208.55" xlink:href="#font_Eurostile_LT_Std_Bold_C0"/>
        <use fill="#ffffff" height="41.1" transform="matrix(0.0488, 0.0, 0.0, 0.0488, 36.4, 49.0)" width="208.55" xlink:href="#font_Eurostile_LT_Std_Bold_a0"/>
        <use fill="#ffffff" height="41.1" transform="matrix(0.0488, 0.0, 0.0, 0.0488, 66.85, 49.0)" width="208.55" xlink:href="#font_Eurostile_LT_Std_Bold_l0"/>
        <use fill="#ffffff" height="41.1" transform="matrix(0.0488, 0.0, 0.0, 0.0488, 81.3, 49.0)" width="208.55" xlink:href="#font_Eurostile_LT_Std_Bold_c0"/>
        <use fill="#ffffff" height="41.1" transform="matrix(0.0488, 0.0, 0.0, 0.0488, 109.15, 49.0)" width="208.55" xlink:href="#font_Eurostile_LT_Std_Bold_u0"/>
        <use fill="#ffffff" height="41.1" transform="matrix(0.0488, 0.0, 0.0, 0.0488, 139.9, 49.0)" width="208.55" xlink:href="#font_Eurostile_LT_Std_Bold_l0"/>
        <use fill="#ffffff" height="41.1" transform="matrix(0.0488, 0.0, 0.0, 0.0488, 154.35, 49.0)" width="208.55" xlink:href="#font_Eurostile_LT_Std_Bold_a0"/>
        <use fill="#ffffff" height="41.1" transform="matrix(0.0488, 0.0, 0.0, 0.0488, 184.8, 49.0)" width="208.55" xlink:href="#font_Eurostile_LT_Std_Bold_r0"/>
      </g>
    </g>
    <g id="font_Eurostile_LT_Std_Bold_C0">
      <path d="M500.5 -291.0 L711.5 -291.0 711.5 -268.5 Q712.0 -226.0 708.5 -187.5 705.0 -148.5 690.0 -114.0 675.0 -79.5 641.0 -50.5 606.0 -22.0 566.5 -10.0 527.0 1.5 484.5 4.0 442.0 6.5 397.5 6.0 318.5 7.0 253.0 0.0 187.0 -7.0 138.5 -34.0 90.0 -61.5 63.0 -121.0 36.5 -180.5 36.0 -284.5 L36.0 -483.5 Q36.0 -578.0 61.0 -636.0 85.5 -694.0 132.5 -724.0 179.0 -754.0 246.0 -764.5 312.5 -774.5 397.5 -774.0 476.0 -774.5 534.5 -767.0 593.0 -759.5 631.5 -734.5 670.0 -709.5 689.5 -658.5 709.0 -608.0 710.5 -522.5 L710.5 -492.5 499.5 -492.5 499.5 -522.5 Q495.5 -556.0 479.5 -572.0 463.0 -588.0 436.5 -592.0 409.5 -596.5 375.0 -596.0 317.5 -596.5 290.0 -582.5 262.5 -569.0 254.0 -537.0 246.0 -505.0 247.0 -450.5 L247.0 -330.5 Q246.0 -273.5 253.0 -238.5 259.5 -203.5 287.0 -187.5 314.5 -171.5 375.0 -172.0 417.0 -171.0 445.0 -177.0 473.0 -182.5 487.0 -203.0 500.5 -224.0 500.5 -268.5 L500.5 -291.0" fill-rule="evenodd" stroke="none"/>
    </g>
    <g id="font_Eurostile_LT_Std_Bold_a0">
      <path d="M391.0 0.0 L397.0 -80.0 391.0 -80.0 Q383.5 -43.5 358.5 -25.0 334.0 -6.5 301.0 0.0 268.0 6.5 236.5 6.0 175.0 6.5 131.5 -7.0 88.0 -20.5 65.0 -56.5 42.0 -93.0 42.0 -160.5 42.0 -224.5 64.0 -261.5 86.5 -299.0 129.5 -314.5 173.0 -330.0 236.5 -329.5 262.5 -330.0 292.5 -327.5 322.5 -325.0 347.5 -312.0 372.5 -299.0 383.0 -269.0 L391.0 -269.0 391.0 -354.0 Q391.5 -379.5 387.5 -397.5 383.0 -416.0 366.0 -426.0 349.0 -436.0 311.0 -436.0 278.0 -437.0 259.0 -425.0 240.0 -413.0 239.5 -377.5 L63.5 -377.5 Q64.0 -439.5 84.5 -474.0 105.0 -508.5 140.0 -523.0 175.0 -538.0 219.5 -541.0 263.5 -544.0 311.0 -543.5 378.5 -544.0 427.0 -537.0 475.5 -530.0 506.5 -509.0 537.5 -488.0 552.5 -446.5 567.0 -404.5 567.0 -335.5 L567.0 0.0 391.0 0.0 M295.0 -222.0 L295.0 -222.0 Q261.5 -223.0 240.0 -212.5 218.5 -201.5 218.0 -166.0 218.5 -137.0 232.0 -124.5 245.5 -112.5 263.0 -109.5 281.0 -107.0 295.0 -107.5 349.0 -106.5 370.5 -119.0 392.0 -132.0 391.0 -173.0 390.5 -205.5 364.5 -214.5 338.5 -223.0 295.0 -222.0" fill-rule="evenodd" stroke="none"/>
    </g>
    <g id="font_Eurostile_LT_Std_Bold_l0">
      <path d="M236.5 -768.0 L236.5 0.0 60.5 0.0 60.5 -768.0 236.5 -768.0" fill-rule="evenodd" stroke="none"/>
    </g>
    <g id="font_Eurostile_LT_Std_Bold_c0">
      <path d="M373.0 -215.0 L549.0 -215.0 Q549.0 -140.5 535.0 -96.0 521.0 -51.5 489.5 -30.0 459.0 -7.5 409.5 -0.5 360.0 6.5 289.0 6.0 186.0 7.0 130.0 -18.0 74.0 -43.0 52.5 -103.0 31.0 -163.0 32.0 -268.0 31.5 -336.5 41.0 -388.0 51.0 -439.5 78.0 -474.0 105.0 -508.5 156.0 -526.0 207.0 -543.5 289.0 -543.5 347.0 -544.0 395.0 -538.0 442.5 -532.0 477.0 -511.5 511.5 -491.0 530.0 -449.0 549.0 -407.0 549.0 -335.5 L373.0 -335.5 Q374.0 -357.0 371.0 -371.0 367.5 -384.5 358.5 -393.0 349.5 -401.5 333.0 -405.0 316.5 -408.5 289.0 -408.5 258.0 -409.5 240.0 -399.5 222.5 -389.5 215.0 -359.0 207.5 -329.0 208.0 -268.0 207.5 -206.0 214.0 -176.0 220.5 -146.0 238.5 -137.0 256.0 -128.0 289.0 -129.0 328.5 -128.5 346.5 -136.5 364.5 -144.0 369.0 -163.0 373.5 -182.0 373.0 -215.0" fill-rule="evenodd" stroke="none"/>
    </g>
    <g id="font_Eurostile_LT_Std_Bold_u0">
      <path d="M568.5 0.0 L397.5 0.0 404.0 -103.5 395.5 -103.5 Q376.5 -42.0 334.0 -17.5 291.5 7.0 234.5 6.0 181.0 6.5 140.0 -10.5 99.0 -27.5 76.0 -66.0 53.0 -105.0 52.5 -170.0 L52.5 -537.5 228.5 -537.5 228.5 -217.0 Q228.0 -192.0 232.0 -172.5 236.0 -152.5 250.0 -141.0 264.0 -129.0 293.0 -129.0 317.0 -129.0 340.0 -137.5 362.5 -145.5 377.0 -163.0 392.0 -180.0 392.5 -207.0 L392.5 -537.5 568.5 -537.5 568.5 0.0" fill-rule="evenodd" stroke="none"/>
    </g>
    <g id="font_Eurostile_LT_Std_Bold_r0">
      <path d="M343.0 -303.0 L343.0 -328.5 Q343.5 -348.0 342.0 -366.0 340.0 -384.5 330.5 -396.0 320.5 -408.0 297.0 -408.5 258.0 -407.5 244.5 -382.0 230.5 -357.0 231.5 -322.5 L231.5 0.0 55.5 0.0 55.5 -537.5 226.5 -537.5 226.5 -458.5 233.5 -458.5 Q242.5 -481.5 256.0 -498.0 269.0 -514.0 285.5 -524.0 302.5 -534.0 323.5 -538.5 344.0 -543.5 368.5 -543.5 429.0 -542.5 457.5 -514.0 486.0 -485.0 494.5 -440.0 502.5 -395.0 501.5 -345.0 L501.5 -303.0 343.0 -303.0" fill-rule="evenodd" stroke="none"/>
    </g>
  </defs>
</svg>
