<?xml version="1.0" encoding="utf-8"?>
<!-- Generator: Adobe Illustrator 26.0.1, SVG Export Plug-In . SVG Version: 6.00 Build 0)  -->
<svg version="1.1" id="Capa_1" xmlns="http://www.w3.org/2000/svg" xmlns:xlink="http://www.w3.org/1999/xlink" x="0px" y="0px"
	 viewBox="0 0 626 85" style="enable-background:new 0 0 626 85;" xml:space="preserve">
<style type="text/css">
	.st0{fill-rule:evenodd;clip-rule:evenodd;fill:#4F3C62;}
	.st1{fill-rule:evenodd;clip-rule:evenodd;fill:#A893BD;}
	.st2{fill-rule:evenodd;clip-rule:evenodd;fill:#9076AB;}
	.st3{fill-rule:evenodd;clip-rule:evenodd;fill:#FFFFFF;}
	.st4{fill-rule:evenodd;clip-rule:evenodd;fill:#FFCC00;}
</style>
<g transform="matrix(1.0, 0.0, 0.0, 1.0, -21.8, 2.3)">
	<path class="st0" d="M630.3,38.9H44.2c-1.7,0-3.5-0.4-5.2-1.3c-3.4-1.7-5.2-4.8-5.2-9V18c0-1.7,0.4-3.5,1.3-5.2
		c1.7-3.4,4.8-5.1,9.1-5.1h586.1l1.7,0.2c1.3,0.2,2.5,0.6,3.5,1.2c3.4,1.7,5.2,4.7,5.2,9v10.5c0,1.7-0.4,3.5-1.3,5.2
		C637.6,37.2,634.6,38.9,630.3,38.9"/>
	<path class="st1" d="M611.4,52c-1.7,3.4-4.8,5.2-9.1,5.2H72.1c-1.7,0-3.5-0.4-5.2-1.2c-3.5-1.7-5.2-4.8-5.2-9V23.1
		c0-1.7,0.4-3.5,1.3-5.2c1.7-3.4,4.7-5.1,9-5.1h530.2l1.7,0.1c1.3,0.2,2.4,0.6,3.5,1.1c3.5,1.7,5.2,4.7,5.2,9.1v23.8
		C612.7,48.6,612.3,50.3,611.4,52"/>
	<path class="st2" d="M594.7,27.9v38.5c0,6.6-4.5,10-13.6,10H91.4c-9,0-13.5-3.3-13.5-10V27.9c0-6.6,4.5-9.9,13.5-9.9h489.7
		C590.1,17.9,594.7,21.2,594.7,27.9"/>
</g>
<g transform="matrix(1.0, 0.0, 0.0, 1.0, 102.2, -12.2)">
	<g transform="matrix(1.0, 0.0, 0.0, 1.0, -110.85, 0.0)">
		<g transform="matrix(0.0498, 0.0, 0.0, 0.0498, 5.0, 50.0)">
			<g id="font_Myriad_Pro_L0">
				<path class="st3" d="M86.7,58.1V37.6h5.6v16.6h9.9v3.9H86.7"/>
			</g>
		</g>
		<g transform="matrix(0.0498, 0.0, 0.0, 0.0498, 31.05, 50.0)">
			<g id="font_Myriad_Pro_a0">
				<path class="st3" d="M115,52.7v-1.6c-1,0-1.9,0.1-2.7,0.2c-0.8,0.1-1.4,0.4-1.9,0.7c-0.5,0.3-0.7,0.8-0.7,1.4
					c0,0.6,0.2,1,0.6,1.3c0.4,0.3,0.9,0.4,1.6,0.4c0.7,0,1.3-0.2,1.8-0.5c0.5-0.3,0.9-0.7,1.1-1.2c0-0.1,0.1-0.2,0.1-0.4
					C115,53,115,52.8,115,52.7 M120.4,49.3v5.2c0,0.7,0,1.4,0.1,2c0,0.6,0.1,1.2,0.2,1.6h-5l-0.3-1.5h-0.1c-0.6,0.6-1.3,1-2.2,1.4
					c-0.9,0.3-1.9,0.5-3,0.5c-1.2,0-2.3-0.2-3.1-0.7c-0.9-0.4-1.5-1-2-1.7c-0.5-0.7-0.7-1.4-0.7-2.2c0-1.3,0.5-2.4,1.3-3.2
					c0.9-0.8,2.1-1.5,3.7-1.9c1.6-0.4,3.4-0.6,5.6-0.6V48c0-0.3-0.1-0.6-0.2-0.9c-0.2-0.3-0.5-0.6-1-0.8c-0.5-0.2-1.2-0.3-2.1-0.3
					c-0.9,0-1.9,0.1-2.7,0.3c-0.9,0.2-1.6,0.5-2.2,0.8l-1-3c0.6-0.3,1.5-0.6,2.7-0.9c1.2-0.3,2.6-0.4,4.3-0.5c2,0,3.6,0.3,4.7,0.9
					c1.2,0.6,2,1.3,2.5,2.3C120.2,47,120.4,48.1,120.4,49.3"/>
			</g>
		</g>
		<g transform="matrix(0.0498, 0.0, 0.0, 0.0498, 58.0, 50.0)">
			<g id="font_Myriad_Pro_s0">
				<path class="st3" d="M123.8,57.4l1-3.3c0.3,0.2,0.8,0.4,1.3,0.5c0.5,0.2,1.1,0.3,1.7,0.4c0.6,0.1,1.2,0.2,1.8,0.2
					c0.8,0,1.5-0.1,1.8-0.3c0.4-0.2,0.6-0.5,0.6-0.9c0-0.4-0.2-0.7-0.5-0.9c-0.4-0.2-1.1-0.5-2.1-0.8c-1.9-0.5-3.2-1.2-4-2
					c-0.8-0.8-1.2-1.6-1.2-2.5c0-0.9,0.3-1.8,0.9-2.5c0.6-0.7,1.4-1.3,2.5-1.7c1.1-0.4,2.4-0.6,3.9-0.7c1.1,0,2,0.1,2.9,0.3
					c0.9,0.2,1.6,0.4,2.2,0.6l-1,3.2c-0.4-0.2-1-0.4-1.7-0.6c-0.7-0.2-1.4-0.3-2.2-0.3c-0.7,0-1.2,0.1-1.6,0.3
					c-0.4,0.2-0.6,0.5-0.6,0.9c0,0.3,0.2,0.6,0.6,0.9s1.2,0.5,2.3,0.8c1.7,0.5,2.9,1.1,3.7,1.9c0.8,0.7,1.2,1.7,1.2,2.7
					c0,0.9-0.3,1.8-0.9,2.5c-0.6,0.7-1.5,1.3-2.6,1.7c-1.2,0.4-2.6,0.6-4.3,0.6c-1.2,0-2.3-0.1-3.3-0.3
					C125.4,57.9,124.5,57.7,123.8,57.4"/>
			</g>
		</g>
		<g transform="matrix(0.0498, 0.0, 0.0, 0.0498, 90.45, 50.0)">
			<g id="font_Myriad_Pro_m0">
				<path class="st3" d="M148.4,58.1V48c0-0.9,0-1.8,0-2.6c0-0.8-0.1-1.5-0.1-2.2h4.8l0.2,2h0.1c0.3-0.3,0.6-0.7,1.1-1.1
					c0.5-0.4,1.1-0.7,1.8-0.9c0.7-0.3,1.6-0.4,2.6-0.4c1.2,0,2.2,0.2,3.1,0.7c0.9,0.5,1.5,1.1,1.9,1.9h0.1c0.3-0.4,0.7-0.7,1.1-1.1
					c0.4-0.3,0.8-0.6,1.3-0.8c0.5-0.2,1-0.4,1.6-0.5c0.6-0.1,1.2-0.2,1.8-0.2c1.2,0,2.2,0.2,3.1,0.7c0.9,0.5,1.6,1.2,2.2,2.1
					c0.5,1,0.8,2.2,0.8,3.7v8.8h-5.5V50c0-1.1-0.2-1.9-0.6-2.5s-1.1-0.9-2-0.9c-0.7,0-1.2,0.2-1.7,0.5c-0.4,0.3-0.8,0.7-1,1.1
					c0,0.2-0.1,0.4-0.1,0.6c0,0.2-0.1,0.4-0.1,0.6v8.7h-5.5v-8.4c0-0.9-0.2-1.7-0.6-2.3c-0.4-0.6-1.1-0.9-2-0.9
					c-0.7,0-1.3,0.2-1.7,0.6c-0.4,0.3-0.7,0.7-0.9,1.1c-0.1,0.2-0.1,0.4-0.2,0.6c0,0.2,0,0.4,0,0.6v8.7H148.4"/>
			</g>
		</g>
		<g transform="matrix(0.0498, 0.0, 0.0, 0.0498, 134.3, 50.0)">
			<g id="font_Myriad_Pro__1">
				<path class="st3" d="M188.2,36.7h5.2l-4.5,4.6h-3.8L188.2,36.7 M189.7,52.7v-1.6c-1,0-1.9,0.1-2.7,0.2c-0.8,0.1-1.4,0.4-1.9,0.7
					c-0.5,0.3-0.7,0.8-0.7,1.4c0,0.6,0.2,1,0.6,1.3c0.4,0.3,0.9,0.4,1.6,0.4c0.7,0,1.3-0.2,1.8-0.5c0.5-0.3,0.9-0.7,1.1-1.2
					c0-0.1,0.1-0.2,0.1-0.4C189.7,53,189.7,52.8,189.7,52.7 M195.1,49.3v5.2c0,0.7,0,1.4,0.1,2c0,0.6,0.1,1.2,0.2,1.6h-5l-0.3-1.5
					h-0.1c-0.6,0.6-1.3,1-2.2,1.4c-0.9,0.3-1.9,0.5-3,0.5c-1.2,0-2.3-0.2-3.1-0.7c-0.9-0.4-1.5-1-2-1.7c-0.5-0.7-0.7-1.4-0.7-2.2
					c0-1.3,0.5-2.4,1.3-3.2c0.9-0.8,2.1-1.5,3.7-1.9c1.6-0.4,3.4-0.6,5.6-0.6V48c0-0.3-0.1-0.6-0.2-0.9c-0.2-0.3-0.5-0.6-1-0.8
					c-0.5-0.2-1.2-0.3-2.1-0.3c-0.9,0-1.9,0.1-2.7,0.3c-0.9,0.2-1.6,0.5-2.2,0.8l-1-3c0.6-0.3,1.5-0.6,2.7-0.9
					c1.2-0.3,2.6-0.4,4.3-0.5c2,0,3.6,0.3,4.7,0.9c1.2,0.6,2,1.3,2.5,2.3C194.9,47,195.1,48.1,195.1,49.3"/>
			</g>
		</g>
		<g transform="matrix(0.0498, 0.0, 0.0, 0.0498, 161.25, 50.0)">
			<g id="font_Myriad_Pro_q0">
				<path class="st3" d="M211.5,51.7v-2.2c0-0.1,0-0.3,0-0.4c0-0.1-0.1-0.3-0.1-0.4c-0.2-0.6-0.5-1.1-1.1-1.5
					c-0.6-0.4-1.3-0.6-2.2-0.7c-1.3,0-2.2,0.4-2.9,1.2c-0.7,0.8-1,1.8-1,3c0,1.2,0.4,2.2,1,3c0.7,0.7,1.6,1.1,2.8,1.1
					c0.8,0,1.5-0.2,2.1-0.6c0.6-0.4,1-0.9,1.2-1.5c0-0.1,0.1-0.3,0.1-0.5S211.5,51.8,211.5,51.7 M211.5,64.2v-7.9h-0.1
					c-0.6,0.7-1.3,1.3-2.2,1.7c-0.9,0.4-2,0.6-3.2,0.6c-1.3,0-2.5-0.3-3.7-0.9c-1.1-0.6-2-1.5-2.7-2.6c-0.7-1.1-1-2.5-1.1-4
					c0-1.8,0.4-3.3,1.2-4.5c0.8-1.2,1.8-2.1,3-2.7c1.2-0.6,2.5-0.9,3.8-0.9c1.2,0,2.2,0.2,3,0.5c0.8,0.4,1.5,0.9,2,1.6l0.1,0
					l0.1-1.8h5.4c0,0.7,0,1.5-0.1,2.2c0,0.7,0,1.5,0,2.3v16.4H211.5"/>
			</g>
		</g>
		<g transform="matrix(0.0498, 0.0, 0.0, 0.0498, 191.6, 50.0)">
			<g id="font_Myriad_Pro_u0">
				<path class="st3" d="M238.6,43.2v10.1c0,1,0,1.9,0,2.6c0,0.8,0.1,1.5,0.1,2.1h-4.9l-0.3-2.1h-0.1c-0.2,0.3-0.6,0.7-1.1,1
					c-0.5,0.4-1.1,0.7-1.8,1c-0.8,0.3-1.7,0.4-2.8,0.4c-1.2,0-2.3-0.2-3.3-0.7c-0.9-0.4-1.7-1.2-2.2-2.1c-0.5-1-0.8-2.2-0.8-3.7
					v-8.7h5.6v8c0,1.1,0.2,1.9,0.7,2.5c0.5,0.6,1.2,0.9,2.2,0.9c0.8,0,1.4-0.2,1.9-0.5c0.5-0.3,0.8-0.7,1-1.1c0.1-0.3,0.2-0.6,0.2-1
					v-8.9H238.6"/>
			</g>
		</g>
		<g transform="matrix(0.0498, 0.0, 0.0, 0.0498, 221.35, 50.0)">
			<g id="font_Myriad_Pro_i0">
				<path class="st3" d="M246,36.7L246,36.7c0.9,0,1.6,0.2,2.1,0.7c0.5,0.4,0.8,1,0.8,1.6c0,0.7-0.3,1.2-0.8,1.6
					c-0.5,0.4-1.3,0.7-2.2,0.7c-0.9,0-1.6-0.2-2.1-0.7c-0.5-0.4-0.8-1-0.8-1.6c0-0.7,0.3-1.2,0.8-1.6C244.3,37,245.1,36.8,246,36.7
					 M248.7,58.1h-5.6V43.2h5.6V58.1"/>
			</g>
		</g>
		<g transform="matrix(0.0498, 0.0, 0.0, 0.0498, 235.3, 50.0)">
			<g id="font_Myriad_Pro_n0">
				<path class="st3" d="M253.2,58.1V48c0-0.9,0-1.8,0-2.6c0-0.8-0.1-1.5-0.1-2.2h4.9l0.3,2.1h0.1c0.3-0.3,0.6-0.7,1.1-1.1
					c0.5-0.4,1.1-0.7,1.9-1c0.7-0.3,1.6-0.4,2.6-0.4c1.2,0,2.3,0.2,3.3,0.7c1,0.5,1.7,1.2,2.3,2.1c0.6,1,0.8,2.2,0.8,3.6v8.8h-5.6
					v-8.2c0-1-0.2-1.8-0.7-2.3c-0.4-0.6-1.2-0.9-2.2-0.9c-0.8,0-1.4,0.2-1.9,0.6c-0.5,0.3-0.8,0.7-1,1.2c-0.1,0.1-0.1,0.3-0.1,0.5
					c0,0.2,0,0.4,0,0.6v8.6H253.2"/>
			</g>
		</g>
		<g transform="matrix(0.0498, 0.0, 0.0, 0.0498, 265.2, 50.0)">
			<g id="font_Myriad_Pro_a0_00000152978420956944460700000000808394681947837587_">
				<path class="st3" d="M284.4,52.7v-1.6c-1,0-1.9,0.1-2.7,0.2c-0.8,0.1-1.4,0.4-1.9,0.7c-0.5,0.3-0.7,0.8-0.7,1.4
					c0,0.6,0.2,1,0.6,1.3c0.4,0.3,0.9,0.4,1.6,0.4c0.7,0,1.3-0.2,1.8-0.5c0.5-0.3,0.9-0.7,1.1-1.2c0-0.1,0.1-0.2,0.1-0.4
					C284.4,53,284.4,52.8,284.4,52.7 M289.9,49.3v5.2c0,0.7,0,1.4,0.1,2c0,0.6,0.1,1.2,0.2,1.6h-5l-0.3-1.5h-0.1
					c-0.6,0.6-1.3,1-2.2,1.4c-0.9,0.3-1.9,0.5-3,0.5c-1.2,0-2.3-0.2-3.1-0.7c-0.9-0.4-1.5-1-2-1.7c-0.5-0.7-0.7-1.4-0.7-2.2
					c0-1.3,0.5-2.4,1.3-3.2c0.9-0.8,2.1-1.5,3.7-1.9c1.6-0.4,3.4-0.6,5.6-0.6V48c0-0.3-0.1-0.6-0.2-0.9c-0.2-0.3-0.5-0.6-1-0.8
					c-0.5-0.2-1.2-0.3-2.1-0.3c-0.9,0-1.9,0.1-2.7,0.3c-0.9,0.2-1.6,0.5-2.2,0.8l-1-3c0.6-0.3,1.5-0.6,2.7-0.9
					c1.2-0.3,2.6-0.4,4.3-0.5c2,0,3.6,0.3,4.7,0.9c1.2,0.6,2,1.3,2.5,2.3C289.6,47,289.9,48.1,289.9,49.3"/>
			</g>
		</g>
		<g transform="matrix(0.0498, 0.0, 0.0, 0.0498, 292.15, 50.0)">
			<g id="font_Myriad_Pro_s0_00000165214118270938821780000010119491538905283506_">
				<path class="st3" d="M293.3,57.4l1-3.3c0.3,0.2,0.8,0.4,1.3,0.5c0.5,0.2,1.1,0.3,1.7,0.4s1.2,0.2,1.8,0.2c0.8,0,1.5-0.1,1.8-0.3
					c0.4-0.2,0.6-0.5,0.6-0.9c0-0.4-0.2-0.7-0.5-0.9c-0.4-0.2-1.1-0.5-2.1-0.8c-1.9-0.5-3.2-1.2-4-2c-0.8-0.8-1.2-1.6-1.2-2.5
					c0-0.9,0.3-1.8,0.9-2.5c0.6-0.7,1.4-1.3,2.5-1.7c1.1-0.4,2.4-0.6,3.9-0.7c1.1,0,2,0.1,2.9,0.3c0.9,0.2,1.6,0.4,2.2,0.6l-1,3.2
					c-0.4-0.2-1-0.4-1.7-0.6c-0.7-0.2-1.4-0.3-2.2-0.3c-0.7,0-1.2,0.1-1.6,0.3c-0.4,0.2-0.6,0.5-0.6,0.9c0,0.3,0.2,0.6,0.6,0.9
					c0.4,0.2,1.2,0.5,2.3,0.8c1.7,0.5,2.9,1.1,3.7,1.9c0.8,0.7,1.2,1.7,1.2,2.7c0,0.9-0.3,1.8-0.9,2.5c-0.6,0.7-1.5,1.3-2.6,1.7
					c-1.2,0.4-2.6,0.6-4.3,0.6c-1.2,0-2.3-0.1-3.3-0.3C294.9,57.9,294,57.7,293.3,57.4"/>
			</g>
		</g>
		<g transform="matrix(0.0498, 0.0, 0.0, 0.0498, 324.6, 50.0)">
			<g id="font_Myriad_Pro_h0">
				<path class="st3" d="M317.8,58.1V36.4h5.6V45h0.1c0.6-0.7,1.3-1.2,2.2-1.5c0.4-0.2,0.9-0.3,1.4-0.4c0.5-0.1,1-0.1,1.5-0.1
					c1.2,0,2.3,0.2,3.2,0.7c0.9,0.5,1.7,1.2,2.2,2.1c0.6,1,0.8,2.2,0.8,3.7v8.7h-5.6v-8.2c0-1-0.2-1.8-0.7-2.4
					c-0.5-0.6-1.2-0.9-2.3-0.9c-0.7,0-1.3,0.2-1.8,0.5c-0.5,0.3-0.8,0.7-1,1.1c-0.1,0.1-0.1,0.3-0.1,0.5c0,0.2,0,0.4,0,0.5v8.8
					H317.8"/>
			</g>
		</g>
		<g transform="matrix(0.0498, 0.0, 0.0, 0.0498, 354.5, 50.0)">
			<g id="font_Myriad_Pro_a0_00000123427367612474005420000006938289153922051217_">
				<path class="st3" d="M349.1,52.7v-1.6c-1,0-1.9,0.1-2.7,0.2c-0.8,0.1-1.4,0.4-1.9,0.7c-0.5,0.3-0.7,0.8-0.7,1.4
					c0,0.6,0.2,1,0.6,1.3c0.4,0.3,0.9,0.4,1.6,0.4c0.7,0,1.3-0.2,1.8-0.5c0.5-0.3,0.9-0.7,1.1-1.2c0-0.1,0.1-0.2,0.1-0.4
					C349.1,53,349.1,52.8,349.1,52.7 M354.5,49.3v5.2c0,0.7,0,1.4,0.1,2c0,0.6,0.1,1.2,0.2,1.6h-5l-0.3-1.5h-0.1
					c-0.6,0.6-1.3,1-2.2,1.4c-0.9,0.3-1.9,0.5-3,0.5c-1.2,0-2.3-0.2-3.1-0.7c-0.9-0.4-1.5-1-2-1.7c-0.5-0.7-0.7-1.4-0.7-2.2
					c0-1.3,0.5-2.4,1.3-3.2c0.9-0.8,2.1-1.5,3.7-1.9c1.6-0.4,3.4-0.6,5.6-0.6V48c0-0.3-0.1-0.6-0.2-0.9c-0.2-0.3-0.5-0.6-1-0.8
					c-0.5-0.2-1.2-0.3-2.1-0.3c-0.9,0-1.9,0.1-2.7,0.3c-0.9,0.2-1.6,0.5-2.2,0.8l-1-3c0.6-0.3,1.5-0.6,2.7-0.9
					c1.2-0.3,2.6-0.4,4.3-0.5c2,0,3.6,0.3,4.7,0.9c1.2,0.6,2,1.3,2.5,2.3C354.3,47,354.5,48.1,354.5,49.3"/>
			</g>
		</g>
		<g transform="matrix(0.0498, 0.0, 0.0, 0.0498, 381.45, 50.0)">
			<g id="font_Myriad_Pro_n0_00000159442835932613152730000004831405480536992403_">
				<path class="st3" d="M359,58.1V48c0-0.9,0-1.8,0-2.6c0-0.8-0.1-1.5-0.1-2.2h4.9l0.3,2.1h0.1c0.3-0.3,0.6-0.7,1.1-1.1
					c0.5-0.4,1.1-0.7,1.9-1c0.7-0.3,1.6-0.4,2.6-0.4c1.2,0,2.3,0.2,3.3,0.7c1,0.5,1.7,1.2,2.3,2.1c0.6,1,0.8,2.2,0.8,3.6v8.8h-5.6
					v-8.2c0-1-0.2-1.8-0.7-2.3c-0.4-0.6-1.2-0.9-2.2-0.9c-0.8,0-1.4,0.2-1.9,0.6c-0.5,0.3-0.8,0.7-1,1.2c-0.1,0.1-0.1,0.3-0.1,0.5
					c0,0.2,0,0.4,0,0.6v8.6H359"/>
			</g>
		</g>
		<g transform="matrix(0.0498, 0.0, 0.0, 0.0498, 421.65, 50.0)">
			<g id="font_Myriad_Pro_c0">
				<path class="st3" d="M401,54.3l0.6,3.4c-0.5,0.2-1.2,0.4-2.1,0.5c-0.9,0.1-1.9,0.2-2.9,0.2c-2,0-3.6-0.3-5.1-0.9
					c-1.4-0.6-2.5-1.5-3.3-2.6c-0.8-1.1-1.2-2.5-1.2-4c0-1.5,0.4-2.8,1.2-4c0.8-1.2,1.9-2.1,3.5-2.8c1.5-0.7,3.4-1.1,5.7-1.1
					c0.7,0,1.5,0,2.3,0.1c0.7,0.1,1.4,0.2,2,0.4l-0.9,3.4c-0.3-0.1-0.7-0.2-1.3-0.3s-1.1-0.1-1.9-0.1c-1.5,0-2.7,0.4-3.5,1.2
					c-0.9,0.8-1.3,1.8-1.3,3c0,0.9,0.2,1.7,0.7,2.3c0.4,0.6,1,1.1,1.8,1.4c0.7,0.3,1.6,0.5,2.5,0.5c0.7,0,1.3,0,1.8-0.1
					C400.1,54.6,400.5,54.5,401,54.3"/>
			</g>
		</g>
		<g transform="matrix(0.0498, 0.0, 0.0, 0.0498, 444.65, 50.0)">
			<g id="font_Myriad_Pro_a0_00000025428109921572486010000008679096028978695337_">
				<path class="st3" d="M414.3,52.7v-1.6c-1,0-1.9,0.1-2.7,0.2c-0.8,0.1-1.4,0.4-1.9,0.7c-0.5,0.3-0.7,0.8-0.7,1.4
					c0,0.6,0.2,1,0.6,1.3c0.4,0.3,0.9,0.4,1.6,0.4c0.7,0,1.3-0.2,1.8-0.5c0.5-0.3,0.9-0.7,1.1-1.2c0-0.1,0.1-0.2,0.1-0.4
					C414.3,53,414.3,52.8,414.3,52.7 M419.8,49.3v5.2c0,0.7,0,1.4,0.1,2c0,0.6,0.1,1.2,0.2,1.6h-5l-0.3-1.5h-0.1
					c-0.6,0.6-1.3,1-2.2,1.4c-0.9,0.3-1.9,0.5-3,0.5c-1.2,0-2.3-0.2-3.1-0.7c-0.9-0.4-1.5-1-2-1.7c-0.5-0.7-0.7-1.4-0.7-2.2
					c0-1.3,0.5-2.4,1.3-3.2c0.9-0.8,2.1-1.5,3.7-1.9c1.6-0.4,3.4-0.6,5.6-0.6V48c0-0.3-0.1-0.6-0.2-0.9c-0.2-0.3-0.5-0.6-1-0.8
					c-0.5-0.2-1.2-0.3-2.1-0.3c-0.9,0-1.9,0.1-2.7,0.3c-0.9,0.2-1.6,0.5-2.2,0.8l-1-3c0.6-0.3,1.5-0.6,2.7-0.9
					c1.2-0.3,2.6-0.4,4.3-0.5c2,0,3.6,0.3,4.7,0.9c1.2,0.6,2,1.3,2.5,2.3C419.5,47,419.8,48.1,419.8,49.3"/>
			</g>
		</g>
		<g transform="matrix(0.0498, 0.0, 0.0, 0.0498, 471.6, 50.0)">
			<g id="font_Myriad_Pro_m0_00000104689538818555449990000008926701443445907131_">
				<path class="st3" d="M424.2,58.1V48c0-0.9,0-1.8,0-2.6c0-0.8-0.1-1.5-0.1-2.2h4.8l0.2,2h0.1c0.3-0.3,0.6-0.7,1.1-1.1
					c0.5-0.4,1.1-0.7,1.8-0.9s1.6-0.4,2.6-0.4c1.2,0,2.2,0.2,3.1,0.7c0.9,0.5,1.5,1.1,1.9,1.9h0.1c0.3-0.4,0.7-0.7,1.1-1.1
					c0.4-0.3,0.8-0.6,1.3-0.8c0.5-0.2,1-0.4,1.6-0.5c0.6-0.1,1.2-0.2,1.8-0.2c1.2,0,2.2,0.2,3.1,0.7c0.9,0.5,1.6,1.2,2.2,2.1
					c0.5,1,0.8,2.2,0.8,3.7v8.8h-5.5V50c0-1.1-0.2-1.9-0.6-2.5c-0.4-0.6-1.1-0.9-2-0.9c-0.7,0-1.2,0.2-1.7,0.5
					c-0.4,0.3-0.8,0.7-1,1.1c0,0.2-0.1,0.4-0.1,0.6c0,0.2-0.1,0.4-0.1,0.6v8.7h-5.5v-8.4c0-0.9-0.2-1.7-0.6-2.3
					c-0.4-0.6-1.1-0.9-2-0.9c-0.7,0-1.3,0.2-1.7,0.6c-0.4,0.3-0.7,0.7-0.9,1.1c-0.1,0.2-0.1,0.4-0.2,0.6c0,0.2,0,0.4,0,0.6v8.7
					H424.2"/>
			</g>
		</g>
		<g transform="matrix(0.0498, 0.0, 0.0, 0.0498, 515.45, 50.0)">
			<g id="font_Myriad_Pro_b0">
				<path class="st3" d="M461.6,49.6v2.2c0,0.3,0,0.6,0.1,0.8c0.2,0.6,0.6,1.1,1.2,1.5c0.6,0.4,1.3,0.6,2.1,0.6
					c1.2,0,2.2-0.4,2.8-1.1c0.7-0.7,1-1.8,1-3.1c0-0.8-0.1-1.5-0.4-2.1c-0.3-0.6-0.7-1.1-1.3-1.5c-0.6-0.4-1.3-0.5-2.2-0.6
					c-0.8,0-1.5,0.2-2.1,0.6c-0.6,0.4-1,1-1.2,1.6c0,0.1-0.1,0.3-0.1,0.4C461.6,49.3,461.6,49.4,461.6,49.6 M456,53.7V36.4h5.6V45
					h0.1c0.5-0.7,1.3-1.2,2.2-1.5c0.9-0.4,2-0.6,3.3-0.6c1.4,0,2.7,0.3,3.8,0.9c1.1,0.6,2,1.5,2.6,2.6c0.6,1.1,1,2.4,1,4
					c0,1.8-0.4,3.3-1.2,4.5c-0.8,1.2-1.8,2.1-3,2.7c-1.2,0.6-2.6,0.9-4,0.9c-1.1,0-2.1-0.2-3-0.5c-0.9-0.4-1.7-1-2.4-1.9h-0.1
					l-0.2,2.1h-4.8c0-0.5,0.1-1.2,0.1-2C456,55.4,456,54.5,456,53.7"/>
			</g>
		</g>
		<g transform="matrix(0.0498, 0.0, 0.0, 0.0498, 545.95, 50.0)">
			<g id="font_Myriad_Pro_i0_00000063627478285372030980000009247192787417112717_">
				<path class="st3" d="M480.9,36.7L480.9,36.7c0.9,0,1.6,0.2,2.1,0.7s0.8,1,0.8,1.6c0,0.7-0.3,1.2-0.8,1.6
					c-0.5,0.4-1.3,0.7-2.2,0.7c-0.9,0-1.6-0.2-2.1-0.7c-0.5-0.4-0.8-1-0.8-1.6c0-0.7,0.3-1.2,0.8-1.6C479.3,37,480,36.8,480.9,36.7
					 M483.7,58.1h-5.6V43.2h5.6V58.1"/>
			</g>
		</g>
		<g transform="matrix(0.0498, 0.0, 0.0, 0.0498, 559.9, 50.0)">
			<g id="font_Myriad_Pro_a0_00000181076257355072782640000017359502598696323475_">
				<path class="st3" d="M497.7,52.7v-1.6c-1,0-1.9,0.1-2.7,0.2c-0.8,0.1-1.4,0.4-1.9,0.7c-0.5,0.3-0.7,0.8-0.7,1.4
					c0,0.6,0.2,1,0.6,1.3c0.4,0.3,0.9,0.4,1.6,0.4c0.7,0,1.3-0.2,1.8-0.5c0.5-0.3,0.9-0.7,1.1-1.2c0-0.1,0.1-0.2,0.1-0.4
					C497.7,53,497.7,52.8,497.7,52.7 M503.2,49.3v5.2c0,0.7,0,1.4,0.1,2c0,0.6,0.1,1.2,0.2,1.6h-5l-0.3-1.5H498
					c-0.6,0.6-1.3,1-2.2,1.4c-0.9,0.3-1.9,0.5-3,0.5c-1.2,0-2.3-0.2-3.1-0.7c-0.9-0.4-1.5-1-2-1.7c-0.5-0.7-0.7-1.4-0.7-2.2
					c0-1.3,0.5-2.4,1.3-3.2c0.9-0.8,2.1-1.5,3.7-1.9c1.6-0.4,3.4-0.6,5.6-0.6V48c0-0.3-0.1-0.6-0.2-0.9c-0.2-0.3-0.5-0.6-1-0.8
					c-0.5-0.2-1.2-0.3-2.1-0.3c-0.9,0-1.9,0.1-2.7,0.3c-0.9,0.2-1.6,0.5-2.2,0.8l-1-3c0.6-0.3,1.5-0.6,2.7-0.9
					c1.2-0.3,2.6-0.4,4.3-0.5c2,0,3.6,0.3,4.7,0.9c1.2,0.6,2,1.3,2.5,2.3C502.9,47,503.2,48.1,503.2,49.3"/>
			</g>
		</g>
		<g transform="matrix(0.0498, 0.0, 0.0, 0.0498, 586.85, 50.0)">
			<g id="font_Myriad_Pro_d0">
				<path class="st3" d="M519.6,51.5v-1.9c0-0.1,0-0.3,0-0.4c0-0.1,0-0.3-0.1-0.4c-0.2-0.6-0.6-1.2-1.1-1.6
					c-0.6-0.4-1.3-0.6-2.2-0.7c-0.9,0-1.6,0.2-2.1,0.6c-0.6,0.4-1,0.9-1.3,1.5c-0.3,0.6-0.4,1.3-0.4,2.1c0,1.3,0.4,2.3,1,3
					c0.7,0.7,1.6,1.1,2.8,1.1c0.8,0,1.5-0.2,2.1-0.6c0.6-0.4,1-0.9,1.2-1.6c0-0.2,0.1-0.3,0.1-0.5C519.6,51.8,519.6,51.7,519.6,51.5
					 M519.6,36.4h5.6v17.2c0,0.9,0,1.7,0,2.5c0,0.8,0.1,1.4,0.1,2h-5l-0.2-2.2H520c-0.6,0.8-1.4,1.4-2.4,1.9c-1,0.4-2.1,0.6-3.3,0.6
					c-1.4,0-2.7-0.3-3.9-1c-1.2-0.6-2.1-1.5-2.8-2.6s-1-2.5-1-4c0-1.7,0.4-3.1,1.1-4.3c0.7-1.2,1.7-2.1,2.9-2.7c1.2-0.6,2.6-0.9,4-1
					c1.1,0,2.1,0.2,2.9,0.5c0.8,0.3,1.4,0.7,1.8,1.2h0.1V36.4"/>
			</g>
		</g>
		<g transform="matrix(0.0498, 0.0, 0.0, 0.0498, 617.25, 50.0)">
			<g id="font_Myriad_Pro_o0">
				<path class="st3" d="M538.1,46.2L538.1,46.2c-0.9,0-1.6,0.2-2.1,0.7c-0.5,0.4-0.9,1-1.2,1.7c-0.2,0.7-0.4,1.4-0.4,2.1
					c0,0.9,0.1,1.6,0.4,2.3c0.3,0.7,0.7,1.2,1.2,1.6c0.6,0.4,1.2,0.6,2,0.6c1.1,0,2-0.4,2.6-1.2c0.6-0.8,0.9-1.9,1-3.3
					c0-0.7-0.1-1.4-0.4-2.1c-0.2-0.7-0.6-1.2-1.2-1.7C539.6,46.4,539,46.2,538.1,46.2 M538.3,42.9L538.3,42.9c1.8,0,3.4,0.3,4.8,1
					c1.4,0.6,2.4,1.5,3.2,2.7c0.8,1.1,1.2,2.5,1.2,4c0,1.8-0.5,3.3-1.4,4.5c-0.9,1.2-2.1,2.1-3.5,2.6c-1.4,0.6-3,0.8-4.6,0.8
					c-1.8,0-3.4-0.3-4.8-0.9c-1.4-0.6-2.5-1.5-3.3-2.6c-0.8-1.1-1.2-2.5-1.2-4.1c0-1.6,0.4-3,1.2-4.2c0.8-1.2,1.9-2.1,3.4-2.7
					C534.6,43.2,536.3,42.9,538.3,42.9"/>
			</g>
		</g>
	</g>
	<g transform="matrix(1.0, 0.0, 0.0, 1.0, -110.85, 0.0)">
		<g transform="matrix(0.0498, 0.0, 0.0, 0.0498, 18.0, 91.0)">
			<g id="font_Myriad_Pro_l0">
				<path class="st3" d="M95.9,82.6V61h5.6v21.7H95.9"/>
			</g>
		</g>
		<g transform="matrix(0.0498, 0.0, 0.0, 0.0498, 32.0, 91.0)">
			<g id="font_Myriad_Pro_a0_00000003078939663086688250000011038357598312486812_">
				<path class="st3" d="M115.7,77.2v-1.6c-1,0-1.9,0.1-2.7,0.2c-0.8,0.1-1.4,0.4-1.9,0.7c-0.5,0.3-0.7,0.8-0.7,1.4
					c0,0.6,0.2,1,0.6,1.3c0.4,0.3,0.9,0.4,1.6,0.4c0.7,0,1.3-0.2,1.8-0.5c0.5-0.3,0.9-0.7,1.1-1.2c0-0.1,0.1-0.2,0.1-0.4
					C115.7,77.5,115.7,77.3,115.7,77.2 M121.1,73.8V79c0,0.7,0,1.4,0.1,2c0,0.6,0.1,1.2,0.2,1.6h-5l-0.3-1.5h-0.1
					c-0.6,0.6-1.3,1-2.2,1.4c-0.9,0.3-1.9,0.5-3,0.5c-1.2,0-2.3-0.2-3.1-0.7c-0.9-0.4-1.5-1-2-1.7c-0.5-0.7-0.7-1.4-0.7-2.2
					c0-1.3,0.5-2.4,1.3-3.2c0.9-0.8,2.1-1.5,3.7-1.9c1.6-0.4,3.4-0.6,5.6-0.6v-0.2c0-0.3-0.1-0.6-0.2-0.9c-0.2-0.3-0.5-0.6-1-0.8
					c-0.5-0.2-1.2-0.3-2.1-0.3c-0.9,0-1.9,0.1-2.7,0.3c-0.9,0.2-1.6,0.5-2.2,0.8l-1-3c0.6-0.3,1.5-0.6,2.7-0.9
					c1.2-0.3,2.6-0.4,4.3-0.5c2,0,3.6,0.3,4.7,0.9c1.2,0.6,2,1.3,2.5,2.3C120.9,71.5,121.1,72.6,121.1,73.8"/>
			</g>
		</g>
		<g transform="matrix(0.0498, 0.0, 0.0, 0.0498, 69.25, 91.0)">
			<g id="font_Myriad_Pro_h0_00000170276890339219541690000011941295718674286470_">
				<path class="st3" d="M133,82.6V61h5.6v8.6h0.1c0.6-0.7,1.3-1.2,2.2-1.5c0.4-0.2,0.9-0.3,1.4-0.4c0.5-0.1,1-0.1,1.5-0.1
					c1.2,0,2.3,0.2,3.2,0.7s1.7,1.2,2.2,2.1c0.6,1,0.8,2.2,0.8,3.7v8.7h-5.6v-8.2c0-1-0.2-1.8-0.7-2.4c-0.5-0.6-1.2-0.9-2.3-0.9
					c-0.7,0-1.3,0.2-1.8,0.5c-0.5,0.3-0.8,0.7-1,1.1c-0.1,0.1-0.1,0.3-0.1,0.5s0,0.4,0,0.5v8.8H133"/>
			</g>
		</g>
		<g transform="matrix(0.0498, 0.0, 0.0, 0.0498, 99.15, 91.0)">
			<g id="font_Myriad_Pro_i0_00000013191553694694242960000006110159080709743534_">
				<path class="st3" d="M157.5,61.3L157.5,61.3c0.9,0,1.6,0.2,2.1,0.7c0.5,0.4,0.8,1,0.8,1.6c0,0.7-0.3,1.2-0.8,1.6
					c-0.5,0.4-1.3,0.7-2.2,0.7c-0.9,0-1.6-0.2-2.1-0.7c-0.5-0.4-0.8-1-0.8-1.6c0-0.7,0.3-1.2,0.8-1.6
					C155.9,61.5,156.6,61.3,157.5,61.3 M160.3,82.6h-5.6V67.7h5.6V82.6"/>
			</g>
		</g>
		<g transform="matrix(0.0498, 0.0, 0.0, 0.0498, 113.1, 91.0)">
			<g id="font_Myriad_Pro_s0_00000022537881171323489950000008659451941050866314_">
				<path class="st3" d="M163.7,81.9l1-3.3c0.3,0.2,0.8,0.4,1.3,0.5c0.5,0.2,1.1,0.3,1.7,0.4s1.2,0.2,1.8,0.2c0.8,0,1.5-0.1,1.8-0.3
					c0.4-0.2,0.6-0.5,0.6-0.9c0-0.4-0.2-0.7-0.5-0.9c-0.4-0.2-1.1-0.5-2.1-0.8c-1.9-0.5-3.2-1.2-4-2c-0.8-0.8-1.2-1.6-1.2-2.5
					c0-0.9,0.3-1.8,0.9-2.5s1.4-1.3,2.5-1.7c1.1-0.4,2.4-0.6,3.9-0.7c1.1,0,2,0.1,2.9,0.3c0.9,0.2,1.6,0.4,2.2,0.6l-1,3.2
					c-0.4-0.2-1-0.4-1.7-0.6c-0.7-0.2-1.4-0.3-2.2-0.3c-0.7,0-1.2,0.1-1.6,0.3c-0.4,0.2-0.6,0.5-0.6,0.9c0,0.3,0.2,0.6,0.6,0.9
					c0.4,0.2,1.2,0.5,2.3,0.8c1.7,0.5,2.9,1.1,3.7,1.9c0.8,0.7,1.2,1.7,1.2,2.7c0,0.9-0.3,1.8-0.9,2.5c-0.6,0.7-1.5,1.3-2.6,1.7
					c-1.2,0.4-2.6,0.6-4.3,0.6c-1.2,0-2.3-0.1-3.3-0.3C165.3,82.5,164.4,82.2,163.7,81.9"/>
			</g>
		</g>
		<g transform="matrix(0.0498, 0.0, 0.0, 0.0498, 135.25, 91.0)">
			<g id="font_Myriad_Pro_t0">
				<path class="st3" d="M181.6,65l5.5-1.3v4h4v3.4h-4v5.4c0,0.9,0.2,1.6,0.5,2c0.3,0.4,0.9,0.6,1.7,0.6c0.4,0,0.7,0,0.9,0
					c0.2,0,0.5,0,0.7-0.1l0,3.5c-0.4,0.1-0.9,0.2-1.5,0.3c-0.6,0.1-1.3,0.1-2.1,0.1c-0.9,0-1.7-0.1-2.5-0.4
					c-0.7-0.2-1.3-0.5-1.8-0.9c-0.5-0.4-0.9-1-1.2-1.8c-0.3-0.7-0.4-1.6-0.4-2.7v-6.1h-2.4v-3.4h2.4V65"/>
			</g>
		</g>
		<g transform="matrix(0.0498, 0.0, 0.0, 0.0498, 153.95, 91.0)">
			<g id="font_Myriad_Pro_o0_00000158018262178120404180000007059576525776294565_">
				<path class="st3" d="M202.8,70.7L202.8,70.7c-0.9,0-1.6,0.2-2.1,0.7c-0.5,0.4-0.9,1-1.2,1.7c-0.2,0.7-0.4,1.4-0.4,2.1
					c0,0.9,0.1,1.6,0.4,2.3c0.3,0.7,0.7,1.2,1.2,1.6c0.6,0.4,1.2,0.6,2,0.6c1.1,0,2-0.4,2.6-1.2c0.6-0.8,0.9-1.9,1-3.3
					c0-0.7-0.1-1.4-0.4-2.1c-0.2-0.7-0.6-1.2-1.2-1.7C204.3,70.9,203.6,70.7,202.8,70.7 M203,67.4L203,67.4c1.8,0,3.4,0.3,4.8,1
					c1.4,0.6,2.4,1.5,3.2,2.7c0.8,1.1,1.2,2.5,1.2,4c0,1.8-0.5,3.3-1.4,4.5c-0.9,1.2-2.1,2.1-3.5,2.6c-1.4,0.6-3,0.8-4.6,0.8
					c-1.8,0-3.4-0.3-4.8-0.9s-2.5-1.5-3.3-2.6c-0.8-1.1-1.2-2.5-1.2-4.1c0-1.6,0.4-3,1.2-4.2c0.8-1.2,1.9-2.1,3.4-2.7
					C199.3,67.7,201,67.4,203,67.4"/>
			</g>
		</g>
		<g transform="matrix(0.0498, 0.0, 0.0, 0.0498, 183.4, 91.0)">
			<g id="font_Myriad_Pro_r0">
				<path class="st3" d="M215.7,82.6v-10c0-1.1,0-2,0-2.8c0-0.8-0.1-1.5-0.1-2.1h4.8l0.2,2.8h0.1c0.3-0.7,0.8-1.3,1.3-1.8
					c0.5-0.5,1.1-0.8,1.7-1c0.6-0.2,1.3-0.3,1.9-0.3c0.2,0,0.5,0,0.6,0c0.2,0,0.3,0,0.5,0.1v4.4c-0.2,0-0.4-0.1-0.7-0.1
					c-0.2,0-0.5,0-0.8,0c-1,0-1.9,0.2-2.6,0.6c-0.7,0.4-1.1,1-1.3,1.7c0,0.2-0.1,0.3-0.1,0.5c0,0.2,0,0.3,0,0.5v7.5H215.7"/>
			</g>
		</g>
		<g transform="matrix(0.0498, 0.0, 0.0, 0.0498, 202.8, 91.0)">
			<g id="font_Myriad_Pro_i0_00000150796432201577772840000006122517259814508989_">
				<path class="st3" d="M232.5,61.3L232.5,61.3c0.9,0,1.6,0.2,2.1,0.7c0.5,0.4,0.8,1,0.8,1.6c0,0.7-0.3,1.2-0.8,1.6
					c-0.5,0.4-1.3,0.7-2.2,0.7c-0.9,0-1.6-0.2-2.1-0.7c-0.5-0.4-0.8-1-0.8-1.6c0-0.7,0.3-1.2,0.8-1.6
					C230.9,61.5,231.6,61.3,232.5,61.3 M235.3,82.6h-5.6V67.7h5.6V82.6"/>
			</g>
		</g>
		<g transform="matrix(0.0498, 0.0, 0.0, 0.0498, 216.75, 91.0)">
			<g id="font_Myriad_Pro_a0_00000083781536620569533860000014934946307597383073_">
				<path class="st3" d="M249.4,77.2v-1.6c-1,0-1.9,0.1-2.7,0.2c-0.8,0.1-1.4,0.4-1.9,0.7c-0.5,0.3-0.7,0.8-0.7,1.4
					c0,0.6,0.2,1,0.6,1.3c0.4,0.3,0.9,0.4,1.6,0.4c0.7,0,1.3-0.2,1.8-0.5c0.5-0.3,0.9-0.7,1.1-1.2c0-0.1,0.1-0.2,0.1-0.4
					C249.4,77.5,249.4,77.3,249.4,77.2 M254.8,73.8V79c0,0.7,0,1.4,0.1,2c0,0.6,0.1,1.2,0.2,1.6h-5l-0.3-1.5h-0.1
					c-0.6,0.6-1.3,1-2.2,1.4c-0.9,0.3-1.9,0.5-3,0.5c-1.2,0-2.3-0.2-3.1-0.7c-0.9-0.4-1.5-1-2-1.7c-0.5-0.7-0.7-1.4-0.7-2.2
					c0-1.3,0.5-2.4,1.3-3.2c0.9-0.8,2.1-1.5,3.7-1.9c1.6-0.4,3.4-0.6,5.6-0.6v-0.2c0-0.3-0.1-0.6-0.2-0.9c-0.2-0.3-0.5-0.6-1-0.8
					c-0.5-0.2-1.2-0.3-2.1-0.3c-0.9,0-1.9,0.1-2.7,0.3c-0.9,0.2-1.6,0.5-2.2,0.8l-1-3c0.6-0.3,1.5-0.6,2.7-0.9
					c1.2-0.3,2.6-0.4,4.3-0.5c2,0,3.6,0.3,4.7,0.9c1.2,0.6,2,1.3,2.5,2.3C254.6,71.5,254.8,72.6,254.8,73.8"/>
			</g>
		</g>
		<g transform="matrix(0.0498, 0.0, 0.0, 0.0498, 254.0, 91.0)">
			<g id="font_Myriad_Pro_d0_00000019670902889179854390000002632379121845973938_">
				<path class="st3" d="M278.6,76V74c0-0.1,0-0.3,0-0.4c0-0.1,0-0.3-0.1-0.4c-0.2-0.6-0.6-1.2-1.1-1.6c-0.6-0.4-1.3-0.6-2.2-0.7
					c-0.9,0-1.6,0.2-2.1,0.6c-0.6,0.4-1,0.9-1.3,1.5c-0.3,0.6-0.4,1.3-0.4,2.1c0,1.3,0.4,2.3,1,3c0.7,0.7,1.6,1.1,2.8,1.1
					c0.8,0,1.5-0.2,2.1-0.6c0.6-0.4,1-0.9,1.2-1.6c0-0.2,0.1-0.3,0.1-0.5C278.6,76.3,278.6,76.2,278.6,76 M278.6,61h5.6v17.2
					c0,0.9,0,1.7,0,2.5c0,0.8,0.1,1.4,0.1,2h-5l-0.2-2.2h-0.1c-0.6,0.8-1.4,1.4-2.4,1.9c-1,0.4-2.1,0.6-3.3,0.6
					c-1.4,0-2.7-0.3-3.9-1c-1.2-0.6-2.1-1.5-2.8-2.6s-1-2.5-1-4c0-1.7,0.4-3.1,1.1-4.3s1.7-2.1,2.9-2.7s2.6-0.9,4-1
					c1.1,0,2.1,0.2,2.9,0.5s1.4,0.7,1.8,1.2h0.1V61"/>
			</g>
		</g>
		<g transform="matrix(0.0498, 0.0, 0.0, 0.0498, 284.4, 91.0)">
			<g id="font_Myriad_Pro_e0">
				<path class="st3" d="M293,73.5h6.6c0-0.4-0.1-0.8-0.3-1.3c-0.2-0.5-0.5-0.9-1-1.2c-0.5-0.3-1.1-0.5-2-0.5
					c-0.8,0-1.4,0.2-1.9,0.5c-0.5,0.3-0.9,0.7-1.1,1.2C293.2,72.6,293.1,73.1,293,73.5 M304.7,76.7h-11.6c0.1,0.6,0.3,1.2,0.8,1.6
					c0.5,0.4,1.1,0.7,1.8,0.9c0.8,0.2,1.6,0.3,2.5,0.3c0.9,0,1.8-0.1,2.6-0.2c0.8-0.1,1.6-0.3,2.3-0.5l0.7,3.1c-0.9,0.3-2,0.6-3,0.7
					c-1.1,0.2-2.3,0.2-3.5,0.2c-3.1,0-5.4-0.7-7.1-2c-1.7-1.3-2.5-3.2-2.5-5.5c0-1,0.2-1.9,0.5-2.8c0.4-0.9,0.9-1.8,1.7-2.6
					c0.7-0.8,1.7-1.4,2.8-1.8c1.1-0.5,2.5-0.7,4.1-0.7c1.9,0,3.5,0.4,4.7,1.1c1.2,0.7,2,1.6,2.6,2.8c0.5,1.1,0.8,2.3,0.8,3.6
					c0,0.4,0,0.8-0.1,1.1C304.8,76.2,304.7,76.5,304.7,76.7"/>
			</g>
		</g>
		<g transform="matrix(0.0498, 0.0, 0.0, 0.0498, 321.65, 91.0)">
			<g id="font_Myriad_Pro_l0_00000054236087979079095500000004296930825488366011_">
				<path class="st3" d="M315.7,82.6V61h5.6v21.7H315.7"/>
			</g>
		</g>
		<g transform="matrix(0.0498, 0.0, 0.0, 0.0498, 335.65, 91.0)">
			<g id="font_Myriad_Pro_a0_00000147216442839754565380000003895894304340630159_">
				<path class="st3" d="M335.4,77.2v-1.6c-1,0-1.9,0.1-2.7,0.2c-0.8,0.1-1.4,0.4-1.9,0.7c-0.5,0.3-0.7,0.8-0.7,1.4
					c0,0.6,0.2,1,0.6,1.3c0.4,0.3,0.9,0.4,1.6,0.4c0.7,0,1.3-0.2,1.8-0.5c0.5-0.3,0.9-0.7,1.1-1.2c0-0.1,0.1-0.2,0.1-0.4
					C335.4,77.5,335.4,77.3,335.4,77.2 M340.9,73.8V79c0,0.7,0,1.4,0.1,2c0,0.6,0.1,1.2,0.2,1.6h-5l-0.3-1.5h-0.1
					c-0.6,0.6-1.3,1-2.2,1.4c-0.9,0.3-1.9,0.5-3,0.5c-1.2,0-2.3-0.2-3.1-0.7c-0.9-0.4-1.5-1-2-1.7c-0.5-0.7-0.7-1.4-0.7-2.2
					c0-1.3,0.5-2.4,1.3-3.2c0.9-0.8,2.1-1.5,3.7-1.9c1.6-0.4,3.4-0.6,5.6-0.6v-0.2c0-0.3-0.1-0.6-0.2-0.9c-0.2-0.3-0.5-0.6-1-0.8
					c-0.5-0.2-1.2-0.3-2.1-0.3c-0.9,0-1.9,0.1-2.7,0.3c-0.9,0.2-1.6,0.5-2.2,0.8l-1-3c0.6-0.3,1.5-0.6,2.7-0.9
					c1.2-0.3,2.6-0.4,4.3-0.5c2,0,3.6,0.3,4.7,0.9c1.2,0.6,2,1.3,2.5,2.3C340.6,71.5,340.9,72.6,340.9,73.8"/>
			</g>
		</g>
		<g transform="matrix(0.0498, 0.0, 0.0, 0.0498, 372.9, 91.0)">
			<g id="font_Myriad_Pro_h0_00000075142754666778021110000010633261419019679421_">
				<path class="st3" d="M352.8,82.6V61h5.6v8.6h0.1c0.6-0.7,1.3-1.2,2.2-1.5c0.4-0.2,0.9-0.3,1.4-0.4c0.5-0.1,1-0.1,1.5-0.1
					c1.2,0,2.3,0.2,3.2,0.7s1.7,1.2,2.2,2.1c0.6,1,0.8,2.2,0.8,3.7v8.7h-5.6v-8.2c0-1-0.2-1.8-0.7-2.4c-0.5-0.6-1.2-0.9-2.3-0.9
					c-0.7,0-1.3,0.2-1.8,0.5c-0.5,0.3-0.8,0.7-1,1.1c-0.1,0.1-0.1,0.3-0.1,0.5c0,0.2,0,0.4,0,0.5v8.8H352.8"/>
			</g>
		</g>
		<g transform="matrix(0.0498, 0.0, 0.0, 0.0498, 402.8, 91.0)">
			<g id="font_Myriad_Pro_u0_00000180354476308782794110000012185570812381450940_">
				<path class="st3" d="M391.5,67.7v10.1c0,1,0,1.9,0,2.6c0,0.8,0.1,1.5,0.1,2.1h-4.9l-0.3-2.1h-0.1c-0.2,0.3-0.6,0.7-1.1,1
					c-0.5,0.4-1.1,0.7-1.8,1c-0.8,0.3-1.7,0.4-2.8,0.4c-1.2,0-2.3-0.2-3.3-0.7c-0.9-0.4-1.7-1.2-2.2-2.1c-0.5-1-0.8-2.2-0.8-3.7
					v-8.7h5.6v8c0,1.1,0.2,1.9,0.7,2.5s1.2,0.9,2.2,0.9c0.8,0,1.4-0.2,1.9-0.5c0.5-0.3,0.8-0.7,1-1.1c0.1-0.3,0.2-0.6,0.2-1v-8.9
					H391.5"/>
			</g>
		</g>
		<g transform="matrix(0.0498, 0.0, 0.0, 0.0498, 432.55, 91.0)">
			<g id="font_Myriad_Pro_m0_00000149371481118667960950000001039399543312337298_">
				<path class="st3" d="M396,82.6V72.5c0-0.9,0-1.8,0-2.6c0-0.8-0.1-1.5-0.1-2.2h4.8l0.2,2h0.1c0.3-0.3,0.6-0.7,1.1-1.1
					c0.5-0.4,1.1-0.7,1.8-0.9c0.7-0.3,1.6-0.4,2.6-0.4c1.2,0,2.2,0.2,3.1,0.7c0.9,0.5,1.5,1.1,1.9,1.9h0.1c0.3-0.4,0.7-0.7,1.1-1.1
					c0.4-0.3,0.8-0.6,1.3-0.8c0.5-0.2,1-0.4,1.6-0.5c0.6-0.1,1.2-0.2,1.8-0.2c1.2,0,2.2,0.2,3.1,0.7c0.9,0.5,1.6,1.2,2.2,2.1
					c0.5,1,0.8,2.2,0.8,3.7v8.8h-5.5v-8.1c0-1.1-0.2-1.9-0.6-2.5c-0.4-0.6-1.1-0.9-2-0.9c-0.7,0-1.2,0.2-1.7,0.5
					c-0.4,0.3-0.8,0.7-1,1.1c0,0.2-0.1,0.4-0.1,0.6s-0.1,0.4-0.1,0.6v8.7h-5.5v-8.4c0-0.9-0.2-1.7-0.6-2.3c-0.4-0.6-1.1-0.9-2-0.9
					c-0.7,0-1.3,0.2-1.7,0.6c-0.4,0.3-0.7,0.7-0.9,1.1c-0.1,0.2-0.1,0.4-0.2,0.6c0,0.2,0,0.4,0,0.6v8.7H396"/>
			</g>
		</g>
		<g transform="matrix(0.0498, 0.0, 0.0, 0.0498, 476.4, 91.0)">
			<g id="font_Myriad_Pro_a0_00000113329700222663096260000002364352425394667150_">
				<path class="st3" d="M437.3,77.2v-1.6c-1,0-1.9,0.1-2.7,0.2c-0.8,0.1-1.4,0.4-1.9,0.7c-0.5,0.3-0.7,0.8-0.7,1.4
					c0,0.6,0.2,1,0.6,1.3c0.4,0.3,0.9,0.4,1.6,0.4c0.7,0,1.3-0.2,1.8-0.5c0.5-0.3,0.9-0.7,1.1-1.2c0-0.1,0.1-0.2,0.1-0.4
					C437.3,77.5,437.3,77.3,437.3,77.2 M442.7,73.8V79c0,0.7,0,1.4,0.1,2c0,0.6,0.1,1.2,0.2,1.6h-5l-0.3-1.5h-0.1
					c-0.6,0.6-1.3,1-2.2,1.4c-0.9,0.3-1.9,0.5-3,0.5c-1.2,0-2.3-0.2-3.1-0.7c-0.9-0.4-1.5-1-2-1.7c-0.5-0.7-0.7-1.4-0.7-2.2
					c0-1.3,0.5-2.4,1.3-3.2c0.9-0.8,2.1-1.5,3.7-1.9c1.6-0.4,3.4-0.6,5.6-0.6v-0.2c0-0.3-0.1-0.6-0.2-0.9c-0.2-0.3-0.5-0.6-1-0.8
					c-0.5-0.2-1.2-0.3-2.1-0.3c-0.9,0-1.9,0.1-2.7,0.3c-0.9,0.2-1.6,0.5-2.2,0.8l-1-3c0.6-0.3,1.5-0.6,2.7-0.9
					c1.2-0.3,2.6-0.4,4.3-0.5c2,0,3.6,0.3,4.7,0.9c1.2,0.6,2,1.3,2.5,2.3C442.5,71.5,442.7,72.6,442.7,73.8"/>
			</g>
		</g>
		<g transform="matrix(0.0498, 0.0, 0.0, 0.0498, 503.35, 91.0)">
			<g id="font_Myriad_Pro_n0_00000098915416934755812510000000929147585291470977_">
				<path class="st3" d="M447.2,82.6V72.5c0-0.9,0-1.8,0-2.6c0-0.8-0.1-1.5-0.1-2.2h4.9l0.3,2.1h0.1c0.3-0.3,0.6-0.7,1.1-1.1
					c0.5-0.4,1.1-0.7,1.9-1c0.7-0.3,1.6-0.4,2.6-0.4c1.2,0,2.3,0.2,3.3,0.7c1,0.5,1.7,1.2,2.3,2.1c0.6,1,0.8,2.2,0.8,3.6v8.8h-5.6
					v-8.2c0-1-0.2-1.8-0.7-2.3c-0.4-0.6-1.2-0.9-2.2-0.9c-0.8,0-1.4,0.2-1.9,0.6c-0.5,0.3-0.8,0.7-1,1.2c-0.1,0.1-0.1,0.3-0.1,0.5
					c0,0.2,0,0.4,0,0.6v8.6H447.2"/>
			</g>
		</g>
		<g transform="matrix(0.0498, 0.0, 0.0, 0.0498, 533.25, 91.0)">
			<g id="font_Myriad_Pro_i0_00000075150596698758386110000003900408571788478338_">
				<path class="st3" d="M471.7,61.3L471.7,61.3c0.9,0,1.6,0.2,2.1,0.7s0.8,1,0.8,1.6c0,0.7-0.3,1.2-0.8,1.6
					c-0.5,0.4-1.3,0.7-2.2,0.7c-0.9,0-1.6-0.2-2.1-0.7c-0.5-0.4-0.8-1-0.8-1.6c0-0.7,0.3-1.2,0.8-1.6
					C470.1,61.5,470.8,61.3,471.7,61.3 M474.5,82.6h-5.6V67.7h5.6V82.6"/>
			</g>
		</g>
		<g transform="matrix(0.0498, 0.0, 0.0, 0.0498, 547.2, 91.0)">
			<g id="font_Myriad_Pro_d0_00000040547299813375319080000011546798757168295083_">
				<path class="st3" d="M490.9,76V74c0-0.1,0-0.3,0-0.4c0-0.1,0-0.3-0.1-0.4c-0.2-0.6-0.6-1.2-1.1-1.6c-0.6-0.4-1.3-0.6-2.2-0.7
					c-0.9,0-1.6,0.2-2.1,0.6c-0.6,0.4-1,0.9-1.3,1.5s-0.4,1.3-0.4,2.1c0,1.3,0.4,2.3,1,3s1.6,1.1,2.8,1.1c0.8,0,1.5-0.2,2.1-0.6
					c0.6-0.4,1-0.9,1.2-1.6c0-0.2,0.1-0.3,0.1-0.5C490.9,76.3,490.9,76.2,490.9,76 M490.9,61h5.6v17.2c0,0.9,0,1.7,0,2.5
					c0,0.8,0.1,1.4,0.1,2h-5l-0.2-2.2h-0.1c-0.6,0.8-1.4,1.4-2.4,1.9c-1,0.4-2.1,0.6-3.3,0.6c-1.4,0-2.7-0.3-3.9-1
					c-1.2-0.6-2.1-1.5-2.8-2.6s-1-2.5-1-4c0-1.7,0.4-3.1,1.1-4.3s1.7-2.1,2.9-2.7s2.6-0.9,4-1c1.1,0,2.1,0.2,2.9,0.5
					s1.4,0.7,1.8,1.2h0.1V61"/>
			</g>
		</g>
		<g transform="matrix(0.0498, 0.0, 0.0, 0.0498, 577.6, 91.0)">
			<g id="font_Myriad_Pro_a0_00000170277466642954944170000005587868343193729165_">
				<path class="st3" d="M510.6,77.2v-1.6c-1,0-1.9,0.1-2.7,0.2c-0.8,0.1-1.4,0.4-1.9,0.7c-0.5,0.3-0.7,0.8-0.7,1.4
					c0,0.6,0.2,1,0.6,1.3c0.4,0.3,0.9,0.4,1.6,0.4c0.7,0,1.3-0.2,1.8-0.5c0.5-0.3,0.9-0.7,1.1-1.2c0-0.1,0.1-0.2,0.1-0.4
					C510.5,77.5,510.6,77.3,510.6,77.2 M516,73.8V79c0,0.7,0,1.4,0.1,2c0,0.6,0.1,1.2,0.2,1.6h-5l-0.3-1.5h-0.1
					c-0.6,0.6-1.3,1-2.2,1.4c-0.9,0.3-1.9,0.5-3,0.5c-1.2,0-2.3-0.2-3.1-0.7c-0.9-0.4-1.5-1-2-1.7c-0.5-0.7-0.7-1.4-0.7-2.2
					c0-1.3,0.5-2.4,1.3-3.2c0.9-0.8,2.1-1.5,3.7-1.9c1.6-0.4,3.4-0.6,5.6-0.6v-0.2c0-0.3-0.1-0.6-0.2-0.9c-0.2-0.3-0.5-0.6-1-0.8
					c-0.5-0.2-1.2-0.3-2.1-0.3c-0.9,0-1.9,0.1-2.7,0.3c-0.9,0.2-1.6,0.5-2.2,0.8l-1-3c0.6-0.3,1.5-0.6,2.7-0.9
					c1.2-0.3,2.6-0.4,4.3-0.5c2,0,3.6,0.3,4.7,0.9c1.2,0.6,2,1.3,2.5,2.3C515.8,71.5,516,72.6,516,73.8"/>
			</g>
		</g>
		<g transform="matrix(0.0498, 0.0, 0.0, 0.0498, 604.55, 91.0)">
			<g id="font_Myriad_Pro_d0_00000024687202129159344100000017184846429513150649_">
				<path class="st3" d="M532.4,76V74c0-0.1,0-0.3,0-0.4c0-0.1,0-0.3-0.1-0.4c-0.2-0.6-0.6-1.2-1.1-1.6c-0.6-0.4-1.3-0.6-2.2-0.7
					c-0.9,0-1.6,0.2-2.1,0.6c-0.6,0.4-1,0.9-1.3,1.5c-0.3,0.6-0.4,1.3-0.4,2.1c0,1.3,0.4,2.3,1,3s1.6,1.1,2.8,1.1
					c0.8,0,1.5-0.2,2.1-0.6c0.6-0.4,1-0.9,1.2-1.6c0-0.2,0.1-0.3,0.1-0.5C532.4,76.3,532.4,76.2,532.4,76 M532.4,61h5.6v17.2
					c0,0.9,0,1.7,0,2.5c0,0.8,0.1,1.4,0.1,2h-5l-0.2-2.2h-0.1c-0.6,0.8-1.4,1.4-2.4,1.9c-1,0.4-2.1,0.6-3.3,0.6
					c-1.4,0-2.7-0.3-3.9-1c-1.2-0.6-2.1-1.5-2.8-2.6c-0.7-1.1-1-2.5-1-4c0-1.7,0.4-3.1,1.1-4.3s1.7-2.1,2.9-2.7s2.6-0.9,4-1
					c1.1,0,2.1,0.2,2.9,0.5s1.4,0.7,1.8,1.2h0.1V61"/>
			</g>
		</g>
	</g>
</g>
<g transform="matrix(1.0, 0.0, 0.0, 1.0, 102.2, -12.2)">
	<g transform="matrix(1.0, 0.0, 0.0, 1.0, -110.85, 0.0)">
		<g transform="matrix(0.0498, 0.0, 0.0, 0.0498, 5.0, 50.0)">
			<g id="font_Myriad_Pro_L0_00000079488005779758880670000010510942727843030401_">
				<path class="st4" d="M88.7,58.1V37.6h5.6v16.6h9.9v3.9H88.7"/>
			</g>
		</g>
		<g transform="matrix(0.0498, 0.0, 0.0, 0.0498, 31.05, 50.0)">
			<g id="font_Myriad_Pro_a0_00000038406368639823912080000014904043201700536737_">
				<path class="st4" d="M117,52.7v-1.6c-1,0-1.9,0.1-2.7,0.2c-0.8,0.1-1.4,0.4-1.9,0.7c-0.5,0.3-0.7,0.8-0.7,1.4
					c0,0.6,0.2,1,0.6,1.3c0.4,0.3,0.9,0.4,1.6,0.4c0.7,0,1.3-0.2,1.8-0.5c0.5-0.3,0.9-0.7,1.1-1.2c0-0.1,0.1-0.2,0.1-0.4
					C117,53,117,52.8,117,52.7 M122.4,49.3v5.2c0,0.7,0,1.4,0.1,2c0,0.6,0.1,1.2,0.2,1.6h-5l-0.3-1.5h-0.1c-0.6,0.6-1.3,1-2.2,1.4
					c-0.9,0.3-1.9,0.5-3,0.5c-1.2,0-2.3-0.2-3.1-0.7c-0.9-0.4-1.5-1-2-1.7c-0.5-0.7-0.7-1.4-0.7-2.2c0-1.3,0.5-2.4,1.3-3.2
					c0.9-0.8,2.1-1.5,3.7-1.9c1.6-0.4,3.4-0.6,5.6-0.6V48c0-0.3-0.1-0.6-0.2-0.9c-0.2-0.3-0.5-0.6-1-0.8c-0.5-0.2-1.2-0.3-2.1-0.3
					c-0.9,0-1.9,0.1-2.7,0.3c-0.9,0.2-1.6,0.5-2.2,0.8l-1-3c0.6-0.3,1.5-0.6,2.7-0.9c1.2-0.3,2.6-0.4,4.3-0.5c2,0,3.6,0.3,4.7,0.9
					c1.2,0.6,2,1.3,2.5,2.3C122.2,47,122.4,48.1,122.4,49.3"/>
			</g>
		</g>
		<g transform="matrix(0.0498, 0.0, 0.0, 0.0498, 58.0, 50.0)">
			<g id="font_Myriad_Pro_s0_00000072978373897586473530000009834233853377156799_">
				<path class="st4" d="M125.8,57.4l1-3.3c0.3,0.2,0.8,0.4,1.3,0.5c0.5,0.2,1.1,0.3,1.7,0.4c0.6,0.1,1.2,0.2,1.8,0.2
					c0.8,0,1.5-0.1,1.8-0.3c0.4-0.2,0.6-0.5,0.6-0.9c0-0.4-0.2-0.7-0.5-0.9c-0.4-0.2-1.1-0.5-2.1-0.8c-1.9-0.5-3.2-1.2-4-2
					c-0.8-0.8-1.2-1.6-1.2-2.5c0-0.9,0.3-1.8,0.9-2.5c0.6-0.7,1.4-1.3,2.5-1.7c1.1-0.4,2.4-0.6,3.9-0.7c1.1,0,2,0.1,2.9,0.3
					c0.9,0.2,1.6,0.4,2.2,0.6l-1,3.2c-0.4-0.2-1-0.4-1.7-0.6c-0.7-0.2-1.4-0.3-2.2-0.3c-0.7,0-1.2,0.1-1.6,0.3
					c-0.4,0.2-0.6,0.5-0.6,0.9c0,0.3,0.2,0.6,0.6,0.9s1.2,0.5,2.3,0.8c1.7,0.5,2.9,1.1,3.7,1.9c0.8,0.7,1.2,1.7,1.2,2.7
					c0,0.9-0.3,1.8-0.9,2.5c-0.6,0.7-1.5,1.3-2.6,1.7c-1.2,0.4-2.6,0.6-4.3,0.6c-1.2,0-2.3-0.1-3.3-0.3
					C127.4,57.9,126.5,57.7,125.8,57.4"/>
			</g>
		</g>
		<g transform="matrix(0.0498, 0.0, 0.0, 0.0498, 90.45, 50.0)">
			<g id="font_Myriad_Pro_m0_00000112628278118027916820000013416485758833408688_">
				<path class="st4" d="M150.4,58.1V48c0-0.9,0-1.8,0-2.6c0-0.8-0.1-1.5-0.1-2.2h4.8l0.2,2h0.1c0.3-0.3,0.6-0.7,1.1-1.1
					c0.5-0.4,1.1-0.7,1.8-0.9c0.7-0.3,1.6-0.4,2.6-0.4c1.2,0,2.2,0.2,3.1,0.7c0.9,0.5,1.5,1.1,1.9,1.9h0.1c0.3-0.4,0.7-0.7,1.1-1.1
					c0.4-0.3,0.8-0.6,1.3-0.8c0.5-0.2,1-0.4,1.6-0.5c0.6-0.1,1.2-0.2,1.8-0.2c1.2,0,2.2,0.2,3.1,0.7c0.9,0.5,1.6,1.2,2.2,2.1
					c0.5,1,0.8,2.2,0.8,3.7v8.8h-5.5V50c0-1.1-0.2-1.9-0.6-2.5s-1.1-0.9-2-0.9c-0.7,0-1.2,0.2-1.7,0.5c-0.4,0.3-0.8,0.7-1,1.1
					c0,0.2-0.1,0.4-0.1,0.6c0,0.2-0.1,0.4-0.1,0.6v8.7h-5.5v-8.4c0-0.9-0.2-1.7-0.6-2.3c-0.4-0.6-1.1-0.9-2-0.9
					c-0.7,0-1.3,0.2-1.7,0.6c-0.4,0.3-0.7,0.7-0.9,1.1c-0.1,0.2-0.1,0.4-0.2,0.6c0,0.2,0,0.4,0,0.6v8.7H150.4"/>
			</g>
		</g>
		<g transform="matrix(0.0498, 0.0, 0.0, 0.0498, 134.3, 50.0)">
			<g id="font_Myriad_Pro__1_00000163037231955769622770000002701187441561023882_">
				<path class="st4" d="M190.2,36.7h5.2l-4.5,4.6h-3.8L190.2,36.7 M191.7,52.7v-1.6c-1,0-1.9,0.1-2.7,0.2c-0.8,0.1-1.4,0.4-1.9,0.7
					c-0.5,0.3-0.7,0.8-0.7,1.4c0,0.6,0.2,1,0.6,1.3c0.4,0.3,0.9,0.4,1.6,0.4c0.7,0,1.3-0.2,1.8-0.5c0.5-0.3,0.9-0.7,1.1-1.2
					c0-0.1,0.1-0.2,0.1-0.4C191.7,53,191.7,52.8,191.7,52.7 M197.1,49.3v5.2c0,0.7,0,1.4,0.1,2c0,0.6,0.1,1.2,0.2,1.6h-5l-0.3-1.5
					h-0.1c-0.6,0.6-1.3,1-2.2,1.4c-0.9,0.3-1.9,0.5-3,0.5c-1.2,0-2.3-0.2-3.1-0.7c-0.9-0.4-1.5-1-2-1.7c-0.5-0.7-0.7-1.4-0.7-2.2
					c0-1.3,0.5-2.4,1.3-3.2c0.9-0.8,2.1-1.5,3.7-1.9c1.6-0.4,3.4-0.6,5.6-0.6V48c0-0.3-0.1-0.6-0.2-0.9c-0.2-0.3-0.5-0.6-1-0.8
					c-0.5-0.2-1.2-0.3-2.1-0.3c-0.9,0-1.9,0.1-2.7,0.3c-0.9,0.2-1.6,0.5-2.2,0.8l-1-3c0.6-0.3,1.5-0.6,2.7-0.9
					c1.2-0.3,2.6-0.4,4.3-0.5c2,0,3.6,0.3,4.7,0.9c1.2,0.6,2,1.3,2.5,2.3C196.9,47,197.1,48.1,197.1,49.3"/>
			</g>
		</g>
		<g transform="matrix(0.0498, 0.0, 0.0, 0.0498, 161.25, 50.0)">
			<g id="font_Myriad_Pro_q0_00000175290436544071518890000000659233168707423901_">
				<path class="st4" d="M213.5,51.7v-2.2c0-0.1,0-0.3,0-0.4c0-0.1-0.1-0.3-0.1-0.4c-0.2-0.6-0.5-1.1-1.1-1.5
					c-0.6-0.4-1.3-0.6-2.2-0.7c-1.3,0-2.2,0.4-2.9,1.2c-0.7,0.8-1,1.8-1,3c0,1.2,0.4,2.2,1,3c0.7,0.7,1.6,1.1,2.8,1.1
					c0.8,0,1.5-0.2,2.1-0.6c0.6-0.4,1-0.9,1.2-1.5c0-0.1,0.1-0.3,0.1-0.5S213.5,51.8,213.5,51.7 M213.5,64.2v-7.9h-0.1
					c-0.6,0.7-1.3,1.3-2.2,1.7c-0.9,0.4-2,0.6-3.2,0.6c-1.3,0-2.5-0.3-3.7-0.9c-1.1-0.6-2-1.5-2.7-2.6c-0.7-1.1-1-2.5-1.1-4
					c0-1.8,0.4-3.3,1.2-4.5c0.8-1.2,1.8-2.1,3-2.7c1.2-0.6,2.5-0.9,3.8-0.9c1.2,0,2.2,0.2,3,0.5c0.8,0.4,1.5,0.9,2,1.6l0.1,0
					l0.1-1.8h5.4c0,0.7,0,1.5-0.1,2.2c0,0.7,0,1.5,0,2.3v16.4H213.5"/>
			</g>
		</g>
		<g transform="matrix(0.0498, 0.0, 0.0, 0.0498, 191.6, 50.0)">
			<g id="font_Myriad_Pro_u0_00000067234501214218058410000004338851179150448800_">
				<path class="st4" d="M240.6,43.2v10.1c0,1,0,1.9,0,2.6c0,0.8,0.1,1.5,0.1,2.1h-4.9l-0.3-2.1h-0.1c-0.2,0.3-0.6,0.7-1.1,1
					c-0.5,0.4-1.1,0.7-1.8,1c-0.8,0.3-1.7,0.4-2.8,0.4c-1.2,0-2.3-0.2-3.3-0.7c-0.9-0.4-1.7-1.2-2.2-2.1c-0.5-1-0.8-2.2-0.8-3.7
					v-8.7h5.6v8c0,1.1,0.2,1.9,0.7,2.5c0.5,0.6,1.2,0.9,2.2,0.9c0.8,0,1.4-0.2,1.9-0.5c0.5-0.3,0.8-0.7,1-1.1c0.1-0.3,0.2-0.6,0.2-1
					v-8.9H240.6"/>
			</g>
		</g>
		<g transform="matrix(0.0498, 0.0, 0.0, 0.0498, 221.35, 50.0)">
			<g id="font_Myriad_Pro_i0_00000086659598393764558810000007943124435155915944_">
				<path class="st4" d="M248,36.7L248,36.7c0.9,0,1.6,0.2,2.1,0.7c0.5,0.4,0.8,1,0.8,1.6c0,0.7-0.3,1.2-0.8,1.6
					c-0.5,0.4-1.3,0.7-2.2,0.7c-0.9,0-1.6-0.2-2.1-0.7c-0.5-0.4-0.8-1-0.8-1.6c0-0.7,0.3-1.2,0.8-1.6C246.3,37,247.1,36.8,248,36.7
					 M250.7,58.1h-5.6V43.2h5.6V58.1"/>
			</g>
		</g>
		<g transform="matrix(0.0498, 0.0, 0.0, 0.0498, 235.3, 50.0)">
			<g id="font_Myriad_Pro_n0_00000014619124029367560370000007358423686702512574_">
				<path class="st4" d="M255.2,58.1V48c0-0.9,0-1.8,0-2.6c0-0.8-0.1-1.5-0.1-2.2h4.9l0.3,2.1h0.1c0.3-0.3,0.6-0.7,1.1-1.1
					c0.5-0.4,1.1-0.7,1.9-1c0.7-0.3,1.6-0.4,2.6-0.4c1.2,0,2.3,0.2,3.3,0.7c1,0.5,1.7,1.2,2.3,2.1c0.6,1,0.8,2.2,0.8,3.6v8.8h-5.6
					v-8.2c0-1-0.2-1.8-0.7-2.3c-0.4-0.6-1.2-0.9-2.2-0.9c-0.8,0-1.4,0.2-1.9,0.6c-0.5,0.3-0.8,0.7-1,1.2c-0.1,0.1-0.1,0.3-0.1,0.5
					c0,0.2,0,0.4,0,0.6v8.6H255.2"/>
			</g>
		</g>
		<g transform="matrix(0.0498, 0.0, 0.0, 0.0498, 265.2, 50.0)">
			<g id="font_Myriad_Pro_a0_00000013155998191650518270000003802961778757606557_">
				<path class="st4" d="M286.4,52.7v-1.6c-1,0-1.9,0.1-2.7,0.2c-0.8,0.1-1.4,0.4-1.9,0.7c-0.5,0.3-0.7,0.8-0.7,1.4
					c0,0.6,0.2,1,0.6,1.3c0.4,0.3,0.9,0.4,1.6,0.4c0.7,0,1.3-0.2,1.8-0.5c0.5-0.3,0.9-0.7,1.1-1.2c0-0.1,0.1-0.2,0.1-0.4
					C286.4,53,286.4,52.8,286.4,52.7 M291.9,49.3v5.2c0,0.7,0,1.4,0.1,2c0,0.6,0.1,1.2,0.2,1.6h-5l-0.3-1.5h-0.1
					c-0.6,0.6-1.3,1-2.2,1.4c-0.9,0.3-1.9,0.5-3,0.5c-1.2,0-2.3-0.2-3.1-0.7c-0.9-0.4-1.5-1-2-1.7c-0.5-0.7-0.7-1.4-0.7-2.2
					c0-1.3,0.5-2.4,1.3-3.2c0.9-0.8,2.1-1.5,3.7-1.9c1.6-0.4,3.4-0.6,5.6-0.6V48c0-0.3-0.1-0.6-0.2-0.9c-0.2-0.3-0.5-0.6-1-0.8
					c-0.5-0.2-1.2-0.3-2.1-0.3c-0.9,0-1.9,0.1-2.7,0.3c-0.9,0.2-1.6,0.5-2.2,0.8l-1-3c0.6-0.3,1.5-0.6,2.7-0.9
					c1.2-0.3,2.6-0.4,4.3-0.5c2,0,3.6,0.3,4.7,0.9c1.2,0.6,2,1.3,2.5,2.3C291.6,47,291.9,48.1,291.9,49.3"/>
			</g>
		</g>
		<g transform="matrix(0.0498, 0.0, 0.0, 0.0498, 292.15, 50.0)">
			<g id="font_Myriad_Pro_s0_00000083067836280976283710000012116978355392853920_">
				<path class="st4" d="M295.3,57.4l1-3.3c0.3,0.2,0.8,0.4,1.3,0.5c0.5,0.2,1.1,0.3,1.7,0.4s1.2,0.2,1.8,0.2c0.8,0,1.5-0.1,1.8-0.3
					c0.4-0.2,0.6-0.5,0.6-0.9c0-0.4-0.2-0.7-0.5-0.9c-0.4-0.2-1.1-0.5-2.1-0.8c-1.9-0.5-3.2-1.2-4-2c-0.8-0.8-1.2-1.6-1.2-2.5
					c0-0.9,0.3-1.8,0.9-2.5c0.6-0.7,1.4-1.3,2.5-1.7c1.1-0.4,2.4-0.6,3.9-0.7c1.1,0,2,0.1,2.9,0.3c0.9,0.2,1.6,0.4,2.2,0.6l-1,3.2
					c-0.4-0.2-1-0.4-1.7-0.6c-0.7-0.2-1.4-0.3-2.2-0.3c-0.7,0-1.2,0.1-1.6,0.3c-0.4,0.2-0.6,0.5-0.6,0.9c0,0.3,0.2,0.6,0.6,0.9
					c0.4,0.2,1.2,0.5,2.3,0.8c1.7,0.5,2.9,1.1,3.7,1.9c0.8,0.7,1.2,1.7,1.2,2.7c0,0.9-0.3,1.8-0.9,2.5c-0.6,0.7-1.5,1.3-2.6,1.7
					c-1.2,0.4-2.6,0.6-4.3,0.6c-1.2,0-2.3-0.1-3.3-0.3C296.9,57.9,296,57.7,295.3,57.4"/>
			</g>
		</g>
		<g transform="matrix(0.0498, 0.0, 0.0, 0.0498, 324.6, 50.0)">
			<g id="font_Myriad_Pro_h0_00000011024496564948728000000017026688983663290752_">
				<path class="st4" d="M319.8,58.1V36.4h5.6V45h0.1c0.6-0.7,1.3-1.2,2.2-1.5c0.4-0.2,0.9-0.3,1.4-0.4c0.5-0.1,1-0.1,1.5-0.1
					c1.2,0,2.3,0.2,3.2,0.7c0.9,0.5,1.7,1.2,2.2,2.1c0.6,1,0.8,2.2,0.8,3.7v8.7h-5.6v-8.2c0-1-0.2-1.8-0.7-2.4
					c-0.5-0.6-1.2-0.9-2.3-0.9c-0.7,0-1.3,0.2-1.8,0.5c-0.5,0.3-0.8,0.7-1,1.1c-0.1,0.1-0.1,0.3-0.1,0.5c0,0.2,0,0.4,0,0.5v8.8
					H319.8"/>
			</g>
		</g>
		<g transform="matrix(0.0498, 0.0, 0.0, 0.0498, 354.5, 50.0)">
			<g id="font_Myriad_Pro_a0_00000020376833558150446780000015371905723719046840_">
				<path class="st4" d="M351.1,52.7v-1.6c-1,0-1.9,0.1-2.7,0.2c-0.8,0.1-1.4,0.4-1.9,0.7c-0.5,0.3-0.7,0.8-0.7,1.4
					c0,0.6,0.2,1,0.6,1.3c0.4,0.3,0.9,0.4,1.6,0.4c0.7,0,1.3-0.2,1.8-0.5c0.5-0.3,0.9-0.7,1.1-1.2c0-0.1,0.1-0.2,0.1-0.4
					C351.1,53,351.1,52.8,351.1,52.7 M356.5,49.3v5.2c0,0.7,0,1.4,0.1,2c0,0.6,0.1,1.2,0.2,1.6h-5l-0.3-1.5h-0.1
					c-0.6,0.6-1.3,1-2.2,1.4c-0.9,0.3-1.9,0.5-3,0.5c-1.2,0-2.3-0.2-3.1-0.7c-0.9-0.4-1.5-1-2-1.7c-0.5-0.7-0.7-1.4-0.7-2.2
					c0-1.3,0.5-2.4,1.3-3.2c0.9-0.8,2.1-1.5,3.7-1.9c1.6-0.4,3.4-0.6,5.6-0.6V48c0-0.3-0.1-0.6-0.2-0.9c-0.2-0.3-0.5-0.6-1-0.8
					c-0.5-0.2-1.2-0.3-2.1-0.3c-0.9,0-1.9,0.1-2.7,0.3c-0.9,0.2-1.6,0.5-2.2,0.8l-1-3c0.6-0.3,1.5-0.6,2.7-0.9
					c1.2-0.3,2.6-0.4,4.3-0.5c2,0,3.6,0.3,4.7,0.9c1.2,0.6,2,1.3,2.5,2.3C356.3,47,356.5,48.1,356.5,49.3"/>
			</g>
		</g>
		<g transform="matrix(0.0498, 0.0, 0.0, 0.0498, 381.45, 50.0)">
			<g id="font_Myriad_Pro_n0_00000005241025543500188960000009454794962962305668_">
				<path class="st4" d="M361,58.1V48c0-0.9,0-1.8,0-2.6c0-0.8-0.1-1.5-0.1-2.2h4.9l0.3,2.1h0.1c0.3-0.3,0.6-0.7,1.1-1.1
					c0.5-0.4,1.1-0.7,1.9-1c0.7-0.3,1.6-0.4,2.6-0.4c1.2,0,2.3,0.2,3.3,0.7c1,0.5,1.7,1.2,2.3,2.1c0.6,1,0.8,2.2,0.8,3.6v8.8h-5.6
					v-8.2c0-1-0.2-1.8-0.7-2.3c-0.4-0.6-1.2-0.9-2.2-0.9c-0.8,0-1.4,0.2-1.9,0.6c-0.5,0.3-0.8,0.7-1,1.2c-0.1,0.1-0.1,0.3-0.1,0.5
					c0,0.2,0,0.4,0,0.6v8.6H361"/>
			</g>
		</g>
		<g transform="matrix(0.0498, 0.0, 0.0, 0.0498, 421.65, 50.0)">
			<g id="font_Myriad_Pro_c0_00000044892307804673533210000010334839311096634514_">
				<path class="st4" d="M403,54.3l0.6,3.4c-0.5,0.2-1.2,0.4-2.1,0.5c-0.9,0.1-1.9,0.2-2.9,0.2c-2,0-3.6-0.3-5.1-0.9
					c-1.4-0.6-2.5-1.5-3.3-2.6c-0.8-1.1-1.2-2.5-1.2-4c0-1.5,0.4-2.8,1.2-4c0.8-1.2,1.9-2.1,3.5-2.8c1.5-0.7,3.4-1.1,5.7-1.1
					c0.7,0,1.5,0,2.3,0.1c0.7,0.1,1.4,0.2,2,0.4l-0.9,3.4c-0.3-0.1-0.7-0.2-1.3-0.3s-1.1-0.1-1.9-0.1c-1.5,0-2.7,0.4-3.5,1.2
					c-0.9,0.8-1.3,1.8-1.3,3c0,0.9,0.2,1.7,0.7,2.3c0.4,0.6,1,1.1,1.8,1.4c0.7,0.3,1.6,0.5,2.5,0.5c0.7,0,1.3,0,1.8-0.1
					C402.1,54.6,402.5,54.5,403,54.3"/>
			</g>
		</g>
		<g transform="matrix(0.0498, 0.0, 0.0, 0.0498, 444.65, 50.0)">
			<g id="font_Myriad_Pro_a0_00000163057705329992388950000001528338317962278805_">
				<path class="st4" d="M416.3,52.7v-1.6c-1,0-1.9,0.1-2.7,0.2c-0.8,0.1-1.4,0.4-1.9,0.7c-0.5,0.3-0.7,0.8-0.7,1.4
					c0,0.6,0.2,1,0.6,1.3c0.4,0.3,0.9,0.4,1.6,0.4c0.7,0,1.3-0.2,1.8-0.5c0.5-0.3,0.9-0.7,1.1-1.2c0-0.1,0.1-0.2,0.1-0.4
					C416.3,53,416.3,52.8,416.3,52.7 M421.8,49.3v5.2c0,0.7,0,1.4,0.1,2c0,0.6,0.1,1.2,0.2,1.6h-5l-0.3-1.5h-0.1
					c-0.6,0.6-1.3,1-2.2,1.4c-0.9,0.3-1.9,0.5-3,0.5c-1.2,0-2.3-0.2-3.1-0.7c-0.9-0.4-1.5-1-2-1.7c-0.5-0.7-0.7-1.4-0.7-2.2
					c0-1.3,0.5-2.4,1.3-3.2c0.9-0.8,2.1-1.5,3.7-1.9c1.6-0.4,3.4-0.6,5.6-0.6V48c0-0.3-0.1-0.6-0.2-0.9c-0.2-0.3-0.5-0.6-1-0.8
					c-0.5-0.2-1.2-0.3-2.1-0.3c-0.9,0-1.9,0.1-2.7,0.3c-0.9,0.2-1.6,0.5-2.2,0.8l-1-3c0.6-0.3,1.5-0.6,2.7-0.9
					c1.2-0.3,2.6-0.4,4.3-0.5c2,0,3.6,0.3,4.7,0.9c1.2,0.6,2,1.3,2.5,2.3C421.5,47,421.8,48.1,421.8,49.3"/>
			</g>
		</g>
		<g transform="matrix(0.0498, 0.0, 0.0, 0.0498, 471.6, 50.0)">
			<g id="font_Myriad_Pro_m0_00000036956860669205546280000018179843732215801993_">
				<path class="st4" d="M426.2,58.1V48c0-0.9,0-1.8,0-2.6c0-0.8-0.1-1.5-0.1-2.2h4.8l0.2,2h0.1c0.3-0.3,0.6-0.7,1.1-1.1
					c0.5-0.4,1.1-0.7,1.8-0.9s1.6-0.4,2.6-0.4c1.2,0,2.2,0.2,3.1,0.7c0.9,0.5,1.5,1.1,1.9,1.9h0.1c0.3-0.4,0.7-0.7,1.1-1.1
					c0.4-0.3,0.8-0.6,1.3-0.8c0.5-0.2,1-0.4,1.6-0.5c0.6-0.1,1.2-0.2,1.8-0.2c1.2,0,2.2,0.2,3.1,0.7c0.9,0.5,1.6,1.2,2.2,2.1
					c0.5,1,0.8,2.2,0.8,3.7v8.8h-5.5V50c0-1.1-0.2-1.9-0.6-2.5c-0.4-0.6-1.1-0.9-2-0.9c-0.7,0-1.2,0.2-1.7,0.5
					c-0.4,0.3-0.8,0.7-1,1.1c0,0.2-0.1,0.4-0.1,0.6c0,0.2-0.1,0.4-0.1,0.6v8.7h-5.5v-8.4c0-0.9-0.2-1.7-0.6-2.3
					c-0.4-0.6-1.1-0.9-2-0.9c-0.7,0-1.3,0.2-1.7,0.6c-0.4,0.3-0.7,0.7-0.9,1.1c-0.1,0.2-0.1,0.4-0.2,0.6c0,0.2,0,0.4,0,0.6v8.7
					H426.2"/>
			</g>
		</g>
		<g transform="matrix(0.0498, 0.0, 0.0, 0.0498, 515.45, 50.0)">
			<g id="font_Myriad_Pro_b0_00000009559866873304983950000001747413648767421839_">
				<path class="st4" d="M463.6,49.6v2.2c0,0.3,0,0.6,0.1,0.8c0.2,0.6,0.6,1.1,1.2,1.5c0.6,0.4,1.3,0.6,2.1,0.6
					c1.2,0,2.2-0.4,2.8-1.1c0.7-0.7,1-1.8,1-3.1c0-0.8-0.1-1.5-0.4-2.1c-0.3-0.6-0.7-1.1-1.3-1.5c-0.6-0.4-1.3-0.5-2.2-0.6
					c-0.8,0-1.5,0.2-2.1,0.6c-0.6,0.4-1,1-1.2,1.6c0,0.1-0.1,0.3-0.1,0.4C463.6,49.3,463.6,49.4,463.6,49.6 M458,53.7V36.4h5.6V45
					h0.1c0.5-0.7,1.3-1.2,2.2-1.5c0.9-0.4,2-0.6,3.3-0.6c1.4,0,2.7,0.3,3.8,0.9c1.1,0.6,2,1.5,2.6,2.6c0.6,1.1,1,2.4,1,4
					c0,1.8-0.4,3.3-1.2,4.5c-0.8,1.2-1.8,2.1-3,2.7c-1.2,0.6-2.6,0.9-4,0.9c-1.1,0-2.1-0.2-3-0.5c-0.9-0.4-1.7-1-2.4-1.9h-0.1
					l-0.2,2.1h-4.8c0-0.5,0.1-1.2,0.1-2C458,55.4,458,54.5,458,53.7"/>
			</g>
		</g>
		<g transform="matrix(0.0498, 0.0, 0.0, 0.0498, 545.95, 50.0)">
			<g id="font_Myriad_Pro_i0_00000014633555949685174930000003059830760325186451_">
				<path class="st4" d="M482.9,36.7L482.9,36.7c0.9,0,1.6,0.2,2.1,0.7s0.8,1,0.8,1.6c0,0.7-0.3,1.2-0.8,1.6
					c-0.5,0.4-1.3,0.7-2.2,0.7c-0.9,0-1.6-0.2-2.1-0.7c-0.5-0.4-0.8-1-0.8-1.6c0-0.7,0.3-1.2,0.8-1.6C481.3,37,482,36.8,482.9,36.7
					 M485.7,58.1h-5.6V43.2h5.6V58.1"/>
			</g>
		</g>
		<g transform="matrix(0.0498, 0.0, 0.0, 0.0498, 559.9, 50.0)">
			<g id="font_Myriad_Pro_a0_00000163764075918183385660000011228713708273930681_">
				<path class="st4" d="M499.7,52.7v-1.6c-1,0-1.9,0.1-2.7,0.2c-0.8,0.1-1.4,0.4-1.9,0.7c-0.5,0.3-0.7,0.8-0.7,1.4
					c0,0.6,0.2,1,0.6,1.3c0.4,0.3,0.9,0.4,1.6,0.4c0.7,0,1.3-0.2,1.8-0.5c0.5-0.3,0.9-0.7,1.1-1.2c0-0.1,0.1-0.2,0.1-0.4
					C499.7,53,499.7,52.8,499.7,52.7 M505.2,49.3v5.2c0,0.7,0,1.4,0.1,2c0,0.6,0.1,1.2,0.2,1.6h-5l-0.3-1.5H500
					c-0.6,0.6-1.3,1-2.2,1.4c-0.9,0.3-1.9,0.5-3,0.5c-1.2,0-2.3-0.2-3.1-0.7c-0.9-0.4-1.5-1-2-1.7c-0.5-0.7-0.7-1.4-0.7-2.2
					c0-1.3,0.5-2.4,1.3-3.2c0.9-0.8,2.1-1.5,3.7-1.9c1.6-0.4,3.4-0.6,5.6-0.6V48c0-0.3-0.1-0.6-0.2-0.9c-0.2-0.3-0.5-0.6-1-0.8
					c-0.5-0.2-1.2-0.3-2.1-0.3c-0.9,0-1.9,0.1-2.7,0.3c-0.9,0.2-1.6,0.5-2.2,0.8l-1-3c0.6-0.3,1.5-0.6,2.7-0.9
					c1.2-0.3,2.6-0.4,4.3-0.5c2,0,3.6,0.3,4.7,0.9c1.2,0.6,2,1.3,2.5,2.3C504.9,47,505.2,48.1,505.2,49.3"/>
			</g>
		</g>
		<g transform="matrix(0.0498, 0.0, 0.0, 0.0498, 586.85, 50.0)">
			<g id="font_Myriad_Pro_d0_00000034079726238639325140000012942685085080841135_">
				<path class="st4" d="M521.6,51.5v-1.9c0-0.1,0-0.3,0-0.4c0-0.1,0-0.3-0.1-0.4c-0.2-0.6-0.6-1.2-1.1-1.6
					c-0.6-0.4-1.3-0.6-2.2-0.7c-0.9,0-1.6,0.2-2.1,0.6c-0.6,0.4-1,0.9-1.3,1.5c-0.3,0.6-0.4,1.3-0.4,2.1c0,1.3,0.4,2.3,1,3
					c0.7,0.7,1.6,1.1,2.8,1.1c0.8,0,1.5-0.2,2.1-0.6c0.6-0.4,1-0.9,1.2-1.6c0-0.2,0.1-0.3,0.1-0.5C521.6,51.8,521.6,51.7,521.6,51.5
					 M521.6,36.4h5.6v17.2c0,0.9,0,1.7,0,2.5c0,0.8,0.1,1.4,0.1,2h-5l-0.2-2.2H522c-0.6,0.8-1.4,1.4-2.4,1.9c-1,0.4-2.1,0.6-3.3,0.6
					c-1.4,0-2.7-0.3-3.9-1c-1.2-0.6-2.1-1.5-2.8-2.6s-1-2.5-1-4c0-1.7,0.4-3.1,1.1-4.3c0.7-1.2,1.7-2.1,2.9-2.7c1.2-0.6,2.6-0.9,4-1
					c1.1,0,2.1,0.2,2.9,0.5c0.8,0.3,1.4,0.7,1.8,1.2h0.1V36.4"/>
			</g>
		</g>
		<g transform="matrix(0.0498, 0.0, 0.0, 0.0498, 617.25, 50.0)">
			<g id="font_Myriad_Pro_o0_00000046303865104408751380000007181233650573094576_">
				<path class="st4" d="M540.1,46.2L540.1,46.2c-0.9,0-1.6,0.2-2.1,0.7c-0.5,0.4-0.9,1-1.2,1.7c-0.2,0.7-0.4,1.4-0.4,2.1
					c0,0.9,0.1,1.6,0.4,2.3c0.3,0.7,0.7,1.2,1.2,1.6c0.6,0.4,1.2,0.6,2,0.6c1.1,0,2-0.4,2.6-1.2c0.6-0.8,0.9-1.9,1-3.3
					c0-0.7-0.1-1.4-0.4-2.1c-0.2-0.7-0.6-1.2-1.2-1.7C541.6,46.4,541,46.2,540.1,46.2 M540.3,42.9L540.3,42.9c1.8,0,3.4,0.3,4.8,1
					c1.4,0.6,2.4,1.5,3.2,2.7c0.8,1.1,1.2,2.5,1.2,4c0,1.8-0.5,3.3-1.4,4.5c-0.9,1.2-2.1,2.1-3.5,2.6c-1.4,0.6-3,0.8-4.6,0.8
					c-1.8,0-3.4-0.3-4.8-0.9c-1.4-0.6-2.5-1.5-3.3-2.6c-0.8-1.1-1.2-2.5-1.2-4.1c0-1.6,0.4-3,1.2-4.2c0.8-1.2,1.9-2.1,3.4-2.7
					C536.6,43.2,538.3,42.9,540.3,42.9"/>
			</g>
		</g>
	</g>
	<g transform="matrix(1.0, 0.0, 0.0, 1.0, -110.85, 0.0)">
		<g transform="matrix(0.0498, 0.0, 0.0, 0.0498, 18.0, 91.0)">
			<g id="font_Myriad_Pro_l0_00000078004041750007371030000009462890092806460595_">
				<path class="st4" d="M97.9,82.6V61h5.6v21.7H97.9"/>
			</g>
		</g>
		<g transform="matrix(0.0498, 0.0, 0.0, 0.0498, 32.0, 91.0)">
			<g id="font_Myriad_Pro_a0_00000028313359809408354380000002356790698250711989_">
				<path class="st4" d="M117.7,77.2v-1.6c-1,0-1.9,0.1-2.7,0.2c-0.8,0.1-1.4,0.4-1.9,0.7c-0.5,0.3-0.7,0.8-0.7,1.4
					c0,0.6,0.2,1,0.6,1.3c0.4,0.3,0.9,0.4,1.6,0.4c0.7,0,1.3-0.2,1.8-0.5c0.5-0.3,0.9-0.7,1.1-1.2c0-0.1,0.1-0.2,0.1-0.4
					C117.7,77.5,117.7,77.3,117.7,77.2 M123.1,73.8V79c0,0.7,0,1.4,0.1,2c0,0.6,0.1,1.2,0.2,1.6h-5l-0.3-1.5h-0.1
					c-0.6,0.6-1.3,1-2.2,1.4c-0.9,0.3-1.9,0.5-3,0.5c-1.2,0-2.3-0.2-3.1-0.7c-0.9-0.4-1.5-1-2-1.7c-0.5-0.7-0.7-1.4-0.7-2.2
					c0-1.3,0.5-2.4,1.3-3.2c0.9-0.8,2.1-1.5,3.7-1.9c1.6-0.4,3.4-0.6,5.6-0.6v-0.2c0-0.3-0.1-0.6-0.2-0.9c-0.2-0.3-0.5-0.6-1-0.8
					c-0.5-0.2-1.2-0.3-2.1-0.3c-0.9,0-1.9,0.1-2.7,0.3c-0.9,0.2-1.6,0.5-2.2,0.8l-1-3c0.6-0.3,1.5-0.6,2.7-0.9
					c1.2-0.3,2.6-0.4,4.3-0.5c2,0,3.6,0.3,4.7,0.9c1.2,0.6,2,1.3,2.5,2.3C122.9,71.5,123.1,72.6,123.1,73.8"/>
			</g>
		</g>
		<g transform="matrix(0.0498, 0.0, 0.0, 0.0498, 69.25, 91.0)">
			<g id="font_Myriad_Pro_h0_00000150102070527136966120000004564207184482480799_">
				<path class="st4" d="M135,82.6V61h5.6v8.6h0.1c0.6-0.7,1.3-1.2,2.2-1.5c0.4-0.2,0.9-0.3,1.4-0.4c0.5-0.1,1-0.1,1.5-0.1
					c1.2,0,2.3,0.2,3.2,0.7s1.7,1.2,2.2,2.1c0.6,1,0.8,2.2,0.8,3.7v8.7h-5.6v-8.2c0-1-0.2-1.8-0.7-2.4c-0.5-0.6-1.2-0.9-2.3-0.9
					c-0.7,0-1.3,0.2-1.8,0.5c-0.5,0.3-0.8,0.7-1,1.1c-0.1,0.1-0.1,0.3-0.1,0.5s0,0.4,0,0.5v8.8H135"/>
			</g>
		</g>
		<g transform="matrix(0.0498, 0.0, 0.0, 0.0498, 99.15, 91.0)">
			<g id="font_Myriad_Pro_i0_00000161628075232315372820000014467139183245977530_">
				<path class="st4" d="M159.5,61.3L159.5,61.3c0.9,0,1.6,0.2,2.1,0.7c0.5,0.4,0.8,1,0.8,1.6c0,0.7-0.3,1.2-0.8,1.6
					c-0.5,0.4-1.3,0.7-2.2,0.7c-0.9,0-1.6-0.2-2.1-0.7c-0.5-0.4-0.8-1-0.8-1.6c0-0.7,0.3-1.2,0.8-1.6
					C157.9,61.5,158.6,61.3,159.5,61.3 M162.3,82.6h-5.6V67.7h5.6V82.6"/>
			</g>
		</g>
		<g transform="matrix(0.0498, 0.0, 0.0, 0.0498, 113.1, 91.0)">
			<g id="font_Myriad_Pro_s0_00000075156166029855540470000011812696479812994723_">
				<path class="st4" d="M165.7,81.9l1-3.3c0.3,0.2,0.8,0.4,1.3,0.5c0.5,0.2,1.1,0.3,1.7,0.4s1.2,0.2,1.8,0.2c0.8,0,1.5-0.1,1.8-0.3
					c0.4-0.2,0.6-0.5,0.6-0.9c0-0.4-0.2-0.7-0.5-0.9c-0.4-0.2-1.1-0.5-2.1-0.8c-1.9-0.5-3.2-1.2-4-2c-0.8-0.8-1.2-1.6-1.2-2.5
					c0-0.9,0.3-1.8,0.9-2.5s1.4-1.3,2.5-1.7c1.1-0.4,2.4-0.6,3.9-0.7c1.1,0,2,0.1,2.9,0.3c0.9,0.2,1.6,0.4,2.2,0.6l-1,3.2
					c-0.4-0.2-1-0.4-1.7-0.6c-0.7-0.2-1.4-0.3-2.2-0.3c-0.7,0-1.2,0.1-1.6,0.3c-0.4,0.2-0.6,0.5-0.6,0.9c0,0.3,0.2,0.6,0.6,0.9
					c0.4,0.2,1.2,0.5,2.3,0.8c1.7,0.5,2.9,1.1,3.7,1.9c0.8,0.7,1.2,1.7,1.2,2.7c0,0.9-0.3,1.8-0.9,2.5c-0.6,0.7-1.5,1.3-2.6,1.7
					c-1.2,0.4-2.6,0.6-4.3,0.6c-1.2,0-2.3-0.1-3.3-0.3C167.3,82.5,166.4,82.2,165.7,81.9"/>
			</g>
		</g>
		<g transform="matrix(0.0498, 0.0, 0.0, 0.0498, 135.25, 91.0)">
			<g id="font_Myriad_Pro_t0_00000039124901564457659950000007591625140445948815_">
				<path class="st4" d="M183.6,65l5.5-1.3v4h4v3.4h-4v5.4c0,0.9,0.2,1.6,0.5,2c0.3,0.4,0.9,0.6,1.7,0.6c0.4,0,0.7,0,0.9,0
					c0.2,0,0.5,0,0.7-0.1l0,3.5c-0.4,0.1-0.9,0.2-1.5,0.3c-0.6,0.1-1.3,0.1-2.1,0.1c-0.9,0-1.7-0.1-2.5-0.4
					c-0.7-0.2-1.3-0.5-1.8-0.9c-0.5-0.4-0.9-1-1.2-1.8c-0.3-0.7-0.4-1.6-0.4-2.7v-6.1h-2.4v-3.4h2.4V65"/>
			</g>
		</g>
		<g transform="matrix(0.0498, 0.0, 0.0, 0.0498, 153.95, 91.0)">
			<g id="font_Myriad_Pro_o0_00000057839043192593039530000012623025261142270880_">
				<path class="st4" d="M204.8,70.7L204.8,70.7c-0.9,0-1.6,0.2-2.1,0.7c-0.5,0.4-0.9,1-1.2,1.7c-0.2,0.7-0.4,1.4-0.4,2.1
					c0,0.9,0.1,1.6,0.4,2.3c0.3,0.7,0.7,1.2,1.2,1.6c0.6,0.4,1.2,0.6,2,0.6c1.1,0,2-0.4,2.6-1.2c0.6-0.8,0.9-1.9,1-3.3
					c0-0.7-0.1-1.4-0.4-2.1c-0.2-0.7-0.6-1.2-1.2-1.7C206.3,70.9,205.6,70.7,204.8,70.7 M205,67.4L205,67.4c1.8,0,3.4,0.3,4.8,1
					c1.4,0.6,2.4,1.5,3.2,2.7c0.8,1.1,1.2,2.5,1.2,4c0,1.8-0.5,3.3-1.4,4.5c-0.9,1.2-2.1,2.1-3.5,2.6c-1.4,0.6-3,0.8-4.6,0.8
					c-1.8,0-3.4-0.3-4.8-0.9s-2.5-1.5-3.3-2.6c-0.8-1.1-1.2-2.5-1.2-4.1c0-1.6,0.4-3,1.2-4.2c0.8-1.2,1.9-2.1,3.4-2.7
					C201.3,67.7,203,67.4,205,67.4"/>
			</g>
		</g>
		<g transform="matrix(0.0498, 0.0, 0.0, 0.0498, 183.4, 91.0)">
			<g id="font_Myriad_Pro_r0_00000026874681394147916290000000236787953649552829_">
				<path class="st4" d="M217.7,82.6v-10c0-1.1,0-2,0-2.8c0-0.8-0.1-1.5-0.1-2.1h4.8l0.2,2.8h0.1c0.3-0.7,0.8-1.3,1.3-1.8
					c0.5-0.5,1.1-0.8,1.7-1c0.6-0.2,1.3-0.3,1.9-0.3c0.2,0,0.5,0,0.6,0c0.2,0,0.3,0,0.5,0.1v4.4c-0.2,0-0.4-0.1-0.7-0.1
					c-0.2,0-0.5,0-0.8,0c-1,0-1.9,0.2-2.6,0.6c-0.7,0.4-1.1,1-1.3,1.7c0,0.2-0.1,0.3-0.1,0.5c0,0.2,0,0.3,0,0.5v7.5H217.7"/>
			</g>
		</g>
		<g transform="matrix(0.0498, 0.0, 0.0, 0.0498, 202.8, 91.0)">
			<g id="font_Myriad_Pro_i0_00000114758460128011295770000016716706917465127869_">
				<path class="st4" d="M234.5,61.3L234.5,61.3c0.9,0,1.6,0.2,2.1,0.7c0.5,0.4,0.8,1,0.8,1.6c0,0.7-0.3,1.2-0.8,1.6
					c-0.5,0.4-1.3,0.7-2.2,0.7c-0.9,0-1.6-0.2-2.1-0.7c-0.5-0.4-0.8-1-0.8-1.6c0-0.7,0.3-1.2,0.8-1.6
					C232.9,61.5,233.6,61.3,234.5,61.3 M237.3,82.6h-5.6V67.7h5.6V82.6"/>
			</g>
		</g>
		<g transform="matrix(0.0498, 0.0, 0.0, 0.0498, 216.75, 91.0)">
			<g id="font_Myriad_Pro_a0_00000088821335419503400320000004694179338461696394_">
				<path class="st4" d="M251.4,77.2v-1.6c-1,0-1.9,0.1-2.7,0.2c-0.8,0.1-1.4,0.4-1.9,0.7c-0.5,0.3-0.7,0.8-0.7,1.4
					c0,0.6,0.2,1,0.6,1.3c0.4,0.3,0.9,0.4,1.6,0.4c0.7,0,1.3-0.2,1.8-0.5c0.5-0.3,0.9-0.7,1.1-1.2c0-0.1,0.1-0.2,0.1-0.4
					C251.4,77.5,251.4,77.3,251.4,77.2 M256.8,73.8V79c0,0.7,0,1.4,0.1,2c0,0.6,0.1,1.2,0.2,1.6h-5l-0.3-1.5h-0.1
					c-0.6,0.6-1.3,1-2.2,1.4c-0.9,0.3-1.9,0.5-3,0.5c-1.2,0-2.3-0.2-3.1-0.7c-0.9-0.4-1.5-1-2-1.7c-0.5-0.7-0.7-1.4-0.7-2.2
					c0-1.3,0.5-2.4,1.3-3.2c0.9-0.8,2.1-1.5,3.7-1.9c1.6-0.4,3.4-0.6,5.6-0.6v-0.2c0-0.3-0.1-0.6-0.2-0.9c-0.2-0.3-0.5-0.6-1-0.8
					c-0.5-0.2-1.2-0.3-2.1-0.3c-0.9,0-1.9,0.1-2.7,0.3c-0.9,0.2-1.6,0.5-2.2,0.8l-1-3c0.6-0.3,1.5-0.6,2.7-0.9
					c1.2-0.3,2.6-0.4,4.3-0.5c2,0,3.6,0.3,4.7,0.9c1.2,0.6,2,1.3,2.5,2.3C256.6,71.5,256.8,72.6,256.8,73.8"/>
			</g>
		</g>
		<g transform="matrix(0.0498, 0.0, 0.0, 0.0498, 254.0, 91.0)">
			<g id="font_Myriad_Pro_d0_00000024712200059428403380000006274839249319910027_">
				<path class="st4" d="M280.6,76V74c0-0.1,0-0.3,0-0.4c0-0.1,0-0.3-0.1-0.4c-0.2-0.6-0.6-1.2-1.1-1.6c-0.6-0.4-1.3-0.6-2.2-0.7
					c-0.9,0-1.6,0.2-2.1,0.6c-0.6,0.4-1,0.9-1.3,1.5c-0.3,0.6-0.4,1.3-0.4,2.1c0,1.3,0.4,2.3,1,3c0.7,0.7,1.6,1.1,2.8,1.1
					c0.8,0,1.5-0.2,2.1-0.6c0.6-0.4,1-0.9,1.2-1.6c0-0.2,0.1-0.3,0.1-0.5C280.6,76.3,280.6,76.2,280.6,76 M280.6,61h5.6v17.2
					c0,0.9,0,1.7,0,2.5c0,0.8,0.1,1.4,0.1,2h-5l-0.2-2.2h-0.1c-0.6,0.8-1.4,1.4-2.4,1.9c-1,0.4-2.1,0.6-3.3,0.6
					c-1.4,0-2.7-0.3-3.9-1c-1.2-0.6-2.1-1.5-2.8-2.6s-1-2.5-1-4c0-1.7,0.4-3.1,1.1-4.3s1.7-2.1,2.9-2.7s2.6-0.9,4-1
					c1.1,0,2.1,0.2,2.9,0.5s1.4,0.7,1.8,1.2h0.1V61"/>
			</g>
		</g>
		<g transform="matrix(0.0498, 0.0, 0.0, 0.0498, 284.4, 91.0)">
			<g id="font_Myriad_Pro_e0_00000068659361103336296180000016988998525047508650_">
				<path class="st4" d="M295,73.5h6.6c0-0.4-0.1-0.8-0.3-1.3c-0.2-0.5-0.5-0.9-1-1.2c-0.5-0.3-1.1-0.5-2-0.5
					c-0.8,0-1.4,0.2-1.9,0.5c-0.5,0.3-0.9,0.7-1.1,1.2C295.2,72.6,295.1,73.1,295,73.5 M306.7,76.7h-11.6c0.1,0.6,0.3,1.2,0.8,1.6
					c0.5,0.4,1.1,0.7,1.8,0.9c0.8,0.2,1.6,0.3,2.5,0.3c0.9,0,1.8-0.1,2.6-0.2c0.8-0.1,1.6-0.3,2.3-0.5l0.7,3.1c-0.9,0.3-2,0.6-3,0.7
					c-1.1,0.2-2.3,0.2-3.5,0.2c-3.1,0-5.4-0.7-7.1-2c-1.7-1.3-2.5-3.2-2.5-5.5c0-1,0.2-1.9,0.5-2.8c0.4-0.9,0.9-1.8,1.7-2.6
					c0.7-0.8,1.7-1.4,2.8-1.8c1.1-0.5,2.5-0.7,4.1-0.7c1.9,0,3.5,0.4,4.7,1.1c1.2,0.7,2,1.6,2.6,2.8c0.5,1.1,0.8,2.3,0.8,3.6
					c0,0.4,0,0.8-0.1,1.1C306.8,76.2,306.7,76.5,306.7,76.7"/>
			</g>
		</g>
		<g transform="matrix(0.0498, 0.0, 0.0, 0.0498, 321.65, 91.0)">
			<g id="font_Myriad_Pro_l0_00000079470447546578287040000010104223809221544331_">
				<path class="st4" d="M317.7,82.6V61h5.6v21.7H317.7"/>
			</g>
		</g>
		<g transform="matrix(0.0498, 0.0, 0.0, 0.0498, 335.65, 91.0)">
			<g id="font_Myriad_Pro_a0_00000132791022722346428360000010449628601202964882_">
				<path class="st4" d="M337.4,77.2v-1.6c-1,0-1.9,0.1-2.7,0.2c-0.8,0.1-1.4,0.4-1.9,0.7c-0.5,0.3-0.7,0.8-0.7,1.4
					c0,0.6,0.2,1,0.6,1.3c0.4,0.3,0.9,0.4,1.6,0.4c0.7,0,1.3-0.2,1.8-0.5c0.5-0.3,0.9-0.7,1.1-1.2c0-0.1,0.1-0.2,0.1-0.4
					C337.4,77.5,337.4,77.3,337.4,77.2 M342.9,73.8V79c0,0.7,0,1.4,0.1,2c0,0.6,0.1,1.2,0.2,1.6h-5l-0.3-1.5h-0.1
					c-0.6,0.6-1.3,1-2.2,1.4c-0.9,0.3-1.9,0.5-3,0.5c-1.2,0-2.3-0.2-3.1-0.7c-0.9-0.4-1.5-1-2-1.7c-0.5-0.7-0.7-1.4-0.7-2.2
					c0-1.3,0.5-2.4,1.3-3.2c0.9-0.8,2.1-1.5,3.7-1.9c1.6-0.4,3.4-0.6,5.6-0.6v-0.2c0-0.3-0.1-0.6-0.2-0.9c-0.2-0.3-0.5-0.6-1-0.8
					c-0.5-0.2-1.2-0.3-2.1-0.3c-0.9,0-1.9,0.1-2.7,0.3c-0.9,0.2-1.6,0.5-2.2,0.8l-1-3c0.6-0.3,1.5-0.6,2.7-0.9
					c1.2-0.3,2.6-0.4,4.3-0.5c2,0,3.6,0.3,4.7,0.9c1.2,0.6,2,1.3,2.5,2.3C342.6,71.5,342.9,72.6,342.9,73.8"/>
			</g>
		</g>
		<g transform="matrix(0.0498, 0.0, 0.0, 0.0498, 372.9, 91.0)">
			<g id="font_Myriad_Pro_h0_00000051366601039227160790000010512837424616295311_">
				<path class="st4" d="M354.8,82.6V61h5.6v8.6h0.1c0.6-0.7,1.3-1.2,2.2-1.5c0.4-0.2,0.9-0.3,1.4-0.4c0.5-0.1,1-0.1,1.5-0.1
					c1.2,0,2.3,0.2,3.2,0.7s1.7,1.2,2.2,2.1c0.6,1,0.8,2.2,0.8,3.7v8.7h-5.6v-8.2c0-1-0.2-1.8-0.7-2.4c-0.5-0.6-1.2-0.9-2.3-0.9
					c-0.7,0-1.3,0.2-1.8,0.5c-0.5,0.3-0.8,0.7-1,1.1c-0.1,0.1-0.1,0.3-0.1,0.5c0,0.2,0,0.4,0,0.5v8.8H354.8"/>
			</g>
		</g>
		<g transform="matrix(0.0498, 0.0, 0.0, 0.0498, 402.8, 91.0)">
			<g id="font_Myriad_Pro_u0_00000044856467125124219420000004587753283659341208_">
				<path class="st4" d="M393.5,67.7v10.1c0,1,0,1.9,0,2.6c0,0.8,0.1,1.5,0.1,2.1h-4.9l-0.3-2.1h-0.1c-0.2,0.3-0.6,0.7-1.1,1
					c-0.5,0.4-1.1,0.7-1.8,1c-0.8,0.3-1.7,0.4-2.8,0.4c-1.2,0-2.3-0.2-3.3-0.7c-0.9-0.4-1.7-1.2-2.2-2.1c-0.5-1-0.8-2.2-0.8-3.7
					v-8.7h5.6v8c0,1.1,0.2,1.9,0.7,2.5s1.2,0.9,2.2,0.9c0.8,0,1.4-0.2,1.9-0.5c0.5-0.3,0.8-0.7,1-1.1c0.1-0.3,0.2-0.6,0.2-1v-8.9
					H393.5"/>
			</g>
		</g>
		<g transform="matrix(0.0498, 0.0, 0.0, 0.0498, 432.55, 91.0)">
			<g id="font_Myriad_Pro_m0_00000135671825178610372480000011291143435937933716_">
				<path class="st4" d="M398,82.6V72.5c0-0.9,0-1.8,0-2.6c0-0.8-0.1-1.5-0.1-2.2h4.8l0.2,2h0.1c0.3-0.3,0.6-0.7,1.1-1.1
					c0.5-0.4,1.1-0.7,1.8-0.9c0.7-0.3,1.6-0.4,2.6-0.4c1.2,0,2.2,0.2,3.1,0.7c0.9,0.5,1.5,1.1,1.9,1.9h0.1c0.3-0.4,0.7-0.7,1.1-1.1
					c0.4-0.3,0.8-0.6,1.3-0.8c0.5-0.2,1-0.4,1.6-0.5c0.6-0.1,1.2-0.2,1.8-0.2c1.2,0,2.2,0.2,3.1,0.7c0.9,0.5,1.6,1.2,2.2,2.1
					c0.5,1,0.8,2.2,0.8,3.7v8.8h-5.5v-8.1c0-1.1-0.2-1.9-0.6-2.5c-0.4-0.6-1.1-0.9-2-0.9c-0.7,0-1.2,0.2-1.7,0.5
					c-0.4,0.3-0.8,0.7-1,1.1c0,0.2-0.1,0.4-0.1,0.6s-0.1,0.4-0.1,0.6v8.7h-5.5v-8.4c0-0.9-0.2-1.7-0.6-2.3c-0.4-0.6-1.1-0.9-2-0.9
					c-0.7,0-1.3,0.2-1.7,0.6c-0.4,0.3-0.7,0.7-0.9,1.1c-0.1,0.2-0.1,0.4-0.2,0.6c0,0.2,0,0.4,0,0.6v8.7H398"/>
			</g>
		</g>
		<g transform="matrix(0.0498, 0.0, 0.0, 0.0498, 476.4, 91.0)">
			<g id="font_Myriad_Pro_a0_00000019652635583136306590000017633676781038320269_">
				<path class="st4" d="M439.3,77.2v-1.6c-1,0-1.9,0.1-2.7,0.2c-0.8,0.1-1.4,0.4-1.9,0.7c-0.5,0.3-0.7,0.8-0.7,1.4
					c0,0.6,0.2,1,0.6,1.3c0.4,0.3,0.9,0.4,1.6,0.4c0.7,0,1.3-0.2,1.8-0.5c0.5-0.3,0.9-0.7,1.1-1.2c0-0.1,0.1-0.2,0.1-0.4
					C439.3,77.5,439.3,77.3,439.3,77.2 M444.7,73.8V79c0,0.7,0,1.4,0.1,2c0,0.6,0.1,1.2,0.2,1.6h-5l-0.3-1.5h-0.1
					c-0.6,0.6-1.3,1-2.2,1.4c-0.9,0.3-1.9,0.5-3,0.5c-1.2,0-2.3-0.2-3.1-0.7c-0.9-0.4-1.5-1-2-1.7c-0.5-0.7-0.7-1.4-0.7-2.2
					c0-1.3,0.5-2.4,1.3-3.2c0.9-0.8,2.1-1.5,3.7-1.9c1.6-0.4,3.4-0.6,5.6-0.6v-0.2c0-0.3-0.1-0.6-0.2-0.9c-0.2-0.3-0.5-0.6-1-0.8
					c-0.5-0.2-1.2-0.3-2.1-0.3c-0.9,0-1.9,0.1-2.7,0.3c-0.9,0.2-1.6,0.5-2.2,0.8l-1-3c0.6-0.3,1.5-0.6,2.7-0.9
					c1.2-0.3,2.6-0.4,4.3-0.5c2,0,3.6,0.3,4.7,0.9c1.2,0.6,2,1.3,2.5,2.3C444.5,71.5,444.7,72.6,444.7,73.8"/>
			</g>
		</g>
		<g transform="matrix(0.0498, 0.0, 0.0, 0.0498, 503.35, 91.0)">
			<g id="font_Myriad_Pro_n0_00000072241714854465487280000012081436328779821710_">
				<path class="st4" d="M449.2,82.6V72.5c0-0.9,0-1.8,0-2.6c0-0.8-0.1-1.5-0.1-2.2h4.9l0.3,2.1h0.1c0.3-0.3,0.6-0.7,1.1-1.1
					c0.5-0.4,1.1-0.7,1.9-1c0.7-0.3,1.6-0.4,2.6-0.4c1.2,0,2.3,0.2,3.3,0.7c1,0.5,1.7,1.2,2.3,2.1c0.6,1,0.8,2.2,0.8,3.6v8.8h-5.6
					v-8.2c0-1-0.2-1.8-0.7-2.3c-0.4-0.6-1.2-0.9-2.2-0.9c-0.8,0-1.4,0.2-1.9,0.6c-0.5,0.3-0.8,0.7-1,1.2c-0.1,0.1-0.1,0.3-0.1,0.5
					c0,0.2,0,0.4,0,0.6v8.6H449.2"/>
			</g>
		</g>
		<g transform="matrix(0.0498, 0.0, 0.0, 0.0498, 533.25, 91.0)">
			<g id="font_Myriad_Pro_i0_00000151545890729459219400000012808333474482990230_">
				<path class="st4" d="M473.7,61.3L473.7,61.3c0.9,0,1.6,0.2,2.1,0.7s0.8,1,0.8,1.6c0,0.7-0.3,1.2-0.8,1.6
					c-0.5,0.4-1.3,0.7-2.2,0.7c-0.9,0-1.6-0.2-2.1-0.7c-0.5-0.4-0.8-1-0.8-1.6c0-0.7,0.3-1.2,0.8-1.6
					C472.1,61.5,472.8,61.3,473.7,61.3 M476.5,82.6h-5.6V67.7h5.6V82.6"/>
			</g>
		</g>
		<g transform="matrix(0.0498, 0.0, 0.0, 0.0498, 547.2, 91.0)">
			<g id="font_Myriad_Pro_d0_00000090255301465048141940000001676712748044429717_">
				<path class="st4" d="M492.9,76V74c0-0.1,0-0.3,0-0.4c0-0.1,0-0.3-0.1-0.4c-0.2-0.6-0.6-1.2-1.1-1.6c-0.6-0.4-1.3-0.6-2.2-0.7
					c-0.9,0-1.6,0.2-2.1,0.6c-0.6,0.4-1,0.9-1.3,1.5s-0.4,1.3-0.4,2.1c0,1.3,0.4,2.3,1,3s1.6,1.1,2.8,1.1c0.8,0,1.5-0.2,2.1-0.6
					c0.6-0.4,1-0.9,1.2-1.6c0-0.2,0.1-0.3,0.1-0.5C492.9,76.3,492.9,76.2,492.9,76 M492.9,61h5.6v17.2c0,0.9,0,1.7,0,2.5
					c0,0.8,0.1,1.4,0.1,2h-5l-0.2-2.2h-0.1c-0.6,0.8-1.4,1.4-2.4,1.9c-1,0.4-2.1,0.6-3.3,0.6c-1.4,0-2.7-0.3-3.9-1
					c-1.2-0.6-2.1-1.5-2.8-2.6s-1-2.5-1-4c0-1.7,0.4-3.1,1.1-4.3s1.7-2.1,2.9-2.7s2.6-0.9,4-1c1.1,0,2.1,0.2,2.9,0.5
					s1.4,0.7,1.8,1.2h0.1V61"/>
			</g>
		</g>
		<g transform="matrix(0.0498, 0.0, 0.0, 0.0498, 577.6, 91.0)">
			<g id="font_Myriad_Pro_a0_00000008858945714009444460000006490574152394539653_">
				<path class="st4" d="M512.6,77.2v-1.6c-1,0-1.9,0.1-2.7,0.2c-0.8,0.1-1.4,0.4-1.9,0.7c-0.5,0.3-0.7,0.8-0.7,1.4
					c0,0.6,0.2,1,0.6,1.3c0.4,0.3,0.9,0.4,1.6,0.4c0.7,0,1.3-0.2,1.8-0.5c0.5-0.3,0.9-0.7,1.1-1.2c0-0.1,0.1-0.2,0.1-0.4
					C512.5,77.5,512.6,77.3,512.6,77.2 M518,73.8V79c0,0.7,0,1.4,0.1,2c0,0.6,0.1,1.2,0.2,1.6h-5l-0.3-1.5h-0.1
					c-0.6,0.6-1.3,1-2.2,1.4c-0.9,0.3-1.9,0.5-3,0.5c-1.2,0-2.3-0.2-3.1-0.7c-0.9-0.4-1.5-1-2-1.7c-0.5-0.7-0.7-1.4-0.7-2.2
					c0-1.3,0.5-2.4,1.3-3.2c0.9-0.8,2.1-1.5,3.7-1.9c1.6-0.4,3.4-0.6,5.6-0.6v-0.2c0-0.3-0.1-0.6-0.2-0.9c-0.2-0.3-0.5-0.6-1-0.8
					c-0.5-0.2-1.2-0.3-2.1-0.3c-0.9,0-1.9,0.1-2.7,0.3c-0.9,0.2-1.6,0.5-2.2,0.8l-1-3c0.6-0.3,1.5-0.6,2.7-0.9
					c1.2-0.3,2.6-0.4,4.3-0.5c2,0,3.6,0.3,4.7,0.9c1.2,0.6,2,1.3,2.5,2.3C517.8,71.5,518,72.6,518,73.8"/>
			</g>
		</g>
		<g transform="matrix(0.0498, 0.0, 0.0, 0.0498, 604.55, 91.0)">
			<g id="font_Myriad_Pro_d0_00000049901126168891326770000001804982474276689807_">
				<path class="st4" d="M534.4,76V74c0-0.1,0-0.3,0-0.4c0-0.1,0-0.3-0.1-0.4c-0.2-0.6-0.6-1.2-1.1-1.6c-0.6-0.4-1.3-0.6-2.2-0.7
					c-0.9,0-1.6,0.2-2.1,0.6c-0.6,0.4-1,0.9-1.3,1.5c-0.3,0.6-0.4,1.3-0.4,2.1c0,1.3,0.4,2.3,1,3s1.6,1.1,2.8,1.1
					c0.8,0,1.5-0.2,2.1-0.6c0.6-0.4,1-0.9,1.2-1.6c0-0.2,0.1-0.3,0.1-0.5C534.4,76.3,534.4,76.2,534.4,76 M534.4,61h5.6v17.2
					c0,0.9,0,1.7,0,2.5c0,0.8,0.1,1.4,0.1,2h-5l-0.2-2.2h-0.1c-0.6,0.8-1.4,1.4-2.4,1.9c-1,0.4-2.1,0.6-3.3,0.6
					c-1.4,0-2.7-0.3-3.9-1c-1.2-0.6-2.1-1.5-2.8-2.6c-0.7-1.1-1-2.5-1-4c0-1.7,0.4-3.1,1.1-4.3s1.7-2.1,2.9-2.7s2.6-0.9,4-1
					c1.1,0,2.1,0.2,2.9,0.5s1.4,0.7,1.8,1.2h0.1V61"/>
			</g>
		</g>
	</g>
</g>
</svg>
